<svg height="16" viewBox="0 0 16 16" width="16" xmlns="http://www.w3.org/2000/svg"><path d="m3.9164422 2.2053456c-.2346432 0-.5071327.0643375-.7796222.2119362-1.0066977.5298407-1.9301342 2.2631769-2.4334826 4.5112146-.42765704 1.9112106-.58660952 4.5187836-.32925835 5.5708956.21950589.904514.60553216 1.301895 1.29054115 1.301895 1.0104811-.018923 2.2858829-1.146727 3.0919983-2.664342.5828243-.840176 1.9377029-1.2224184 3.2433814-1.1807878 1.3056785-.0454149 2.6605571.3406118 3.2433811 1.1807878.806116 1.517615 2.081517 2.645419 3.091998 2.664342.685009 0 1.071036-.397381 1.290542-1.301895.257351-1.052112.098398-3.659685-.329259-5.5708956-.503348-2.2480377-1.426785-3.9813739-2.433482-4.5112146-.548764-.2951974-1.006697-.2876278-1.407863 0-.510918.3633193-1.5781674.7569152-3.4553171.7569152-1.8771497.0037844-2.9443996-.3935959-3.4553176-.7569152-.2005833-.1438143-.3935959-.2119362-.6282401-.2119362zm.2384285 2.9065543h.9612828v.9688515h.9612818v.9688514h-.9612818v.9688515h-.9612828v-.9688515h-.9612828v-.9688514h.9612828zm7.2096173 0c.26492 0 .480641.2157206.480641.4844258 0 .2687051-.215721.4844257-.480641.4844257s-.480642-.2157206-.480642-.4844257c0-.2687052.215722-.4844258.480642-.4844258zm-.961282.9688515c.26492 0 .48064.2157206.48064.4844257s-.21572.4844257-.48064.4844257c-.264921 0-.4806415-.2157206-.4806415-.4844257s.2157205-.4844257.4806415-.4844257zm1.922564 0c.26492 0 .480642.2157206.480642.4844257s-.215722.4844257-.480642.4844257-.480641-.2157206-.480641-.4844257.215721-.4844257.480641-.4844257zm-.961282.9688514c.26492 0 .480641.2157206.480641.4844258 0 .2687051-.215721.4844257-.480641.4844257s-.480642-.2157206-.480642-.4844257c0-.2687052.215722-.4844258.480642-.4844258zm0 0" fill="#2e3436" stroke-width=".968851"/></svg>
