<svg height="16" viewBox="0 0 16 16" width="16" xmlns="http://www.w3.org/2000/svg"><path d="m7.9774106 1c1.5483125 0 2.5080964.9584969 2.9442564 1.6345219.152642.2398603.218276.4813776.218276.7648648v1.0669723c0 .2835209-.065634.5250036-.218276.7648967-.43616.6323999-1.3959439 1.5690664-2.9442564 1.5908658-1.6791651.0217939-3.1389084-1.3078124-3.1171127-2.9215548.0217966-1.5919085 1.4161529-2.9005667 3.1171127-2.9005667zm1.8545715 1.7445176c-.1962642 0-.3492433.1530138-.3492433.3492808v1.5908612c0 .1962689.1529791.3492481.3492433.3492481.1962729 0 .3492529-.1529792.3492529-.3492481v-1.5908612c0-.196267-.15298-.3492808-.3492529-.3492808zm-4.2522045 3.969329c.5669754.4361319 1.264189.718674 2.027426.7840939v5.1253445h-2.027426zm2.027426 6.6289214v1.025069c0 .414333-.2841562.632163-.6985234.632163h-.6094548c-.4361301 0-.7194478-.21783-.7194478-.632163v-1.025069z" fill="#2e3436" stroke-width=".911458"/></svg>