<svg height="16" viewBox="0 0 16 16" width="16" xmlns="http://www.w3.org/2000/svg"><path d="m4.8133858 2.8908016c-1.7980337-.017802-3.9343114 1.7802315-3.9343114 3.5070559 0 1.4419874 1.4419874 2.5635332 2.5991378 2.5635332 1.6200106 0 3.8452999-1.8870453 3.8452999-3.4358466 0-1.5131967-1.1749528-2.6169401-2.5101263-2.6347425zm-1.8870453 5.269485c-.3204416 0-.8367087-.4094532-1.1393481-.907918-.3026393-.5162671-.3026393-.9257203.035605-.9257203.3204417 0 .8367088.4094532 1.1393481.9257203.2848371.4984648.2848371.907918-.035605.907918zm1.6200106-2.5991378c-.1780232-.2670348-.1246162-.6052787.1424185-.8011042l.8189064-.5874763c.2492324-.1780232.6052787-.1246162.7833019.1424185.1958254.2492324.1424185.5874763-.1246162.7833018l-.8189065.569674c-.2670347.2136278-.623081.1424186-.8011041-.1068138zm.5518717 7.5481802h.7298949c.3560463 0 .6052787-.178023.6052787-.534069v-4.3615665c-.5696741.5162671-1.246162.9257204-1.9226499 1.1393481v3.2222184c-.017802.356046.2136277.534069.5874763.534069zm6.0883912-10.2185274c-1.3529757.017802-2.5101261 1.1215458-2.5101261 2.6347425 0 1.5666037 2.2252891 3.4358466 3.8453001 3.4358466 1.15715 0 2.599138-1.1215458 2.599138-2.5635332 0-1.7268244-2.136278-3.5248582-3.934312-3.5070559zm1.887045 5.269485c-.320441 0-.338243-.4094532-.0178-.907918.30264-.5162671.818907-.9257203 1.139348-.9257203.320442 0 .338244.4094532.03561.9257203-.320442.4984648-.818907.907918-1.157151.907918zm-1.62001-2.5991378c-.178023.2492324-.53407.3204416-.801104.1246162l-.8189067-.5696741c-.2670347-.1958254-.3204416-.5340694-.1246162-.7833018.1780232-.2670347.5340699-.3204417.7833019-.1424185l.818906.5874763c.267035.1602209.320442.5162671.142419.7833019zm-.551872 7.5481802c.373849 0 .605279-.178023.605279-.534069v-3.2222184c-.676488-.2136277-1.352976-.623081-1.9226501-1.1393481v4.3615665c0 .356046.2314301.534069.6052791.534069z" fill="#2e3436"/></svg>