<?xml version="1.0" encoding="UTF-8"?>
<svg height="16px" viewBox="0 0 16 16" width="16px" xmlns="http://www.w3.org/2000/svg">
    <path d="m 7.9672122,0.10001108 c -0.1122058,-5.9871e-4 -0.2268492,0.0225978 -0.3336668,0.0713622 -0.2817512,0.13003874 -0.4628903,0.4117209 -0.4628903,0.72133738 v 4.19880069 l -1.859276,-1.6220447 c -0.3281938,-0.2879449 -0.824922,-0.2568324 -1.1128654,0.071362 -0.2879448,0.3312889 -0.2579994,0.8287792 0.073291,1.1167229 l 2.0347887,1.7840563 -2.0347887,1.7840563 c -0.3312901,0.287945 -0.3612342,0.7846731 -0.073291,1.1128655 0.287942,0.3312912 0.7846716,0.3631635 1.1128654,0.07522 l 1.859276,-1.6220447 v 4.198801 c 0,0.309614 0.1811371,0.591297 0.4628903,0.721336 0.2848465,0.126955 0.6164196,0.08015 0.8486322,-0.127294 l 3.1707994,-2.7754129 c 0.173373,-0.1486166 0.271947,-0.3649258 0.271947,-0.5940424 0,-0.2291148 -0.09856,-0.445428 -0.271947,-0.5940427 l -2.4899649,-2.1794417 2.4899649,-2.1794418 c 0.173394,-0.1486169 0.271947,-0.3649261 0.271947,-0.5940426 0,-0.2291147 -0.09856,-0.4473563 -0.271947,-0.5959712 l -3.1707994,-2.77348433 c -0.1451331,-0.12965225 -0.3279557,-0.19765924 -0.5149654,-0.19865729 z m 0.7888422,2.54011042 1.1765128,1.0280022 -1.1765128,1.0280023 z m 0,5.5469687 1.1765128,1.0280023 -1.1765128,1.0280015 z m -4.7060513,5.3193808 a 1.1966744,1.1966744 0 0 0 -1.1958,1.197728 1.1966744,1.1966744 0 0 0 1.1958,1.195801 1.1966744,1.1966744 0 0 0 1.1957998,-1.195801 1.1966744,1.1966744 0 0 0 -1.1957998,-1.197728 z m 3.9499972,0 a 1.1966744,1.1966744 0 0 0 -1.1958,1.197728 1.1966744,1.1966744 0 0 0 1.1958,1.195801 1.1966744,1.1966744 0 0 0 1.1957998,-1.195801 1.1966744,1.1966744 0 0 0 -1.1957998,-1.197728 z m 3.9499977,0 a 1.1966744,1.1966744 0 0 0 -1.195801,1.197728 1.1966744,1.1966744 0 0 0 1.195801,1.195801 1.1966744,1.1966744 0 0 0 1.195799,-1.195801 1.1966744,1.1966744 0 0 0 -1.195799,-1.197728 z" fill="#2e3436"/>
</svg>
