<svg height="16" viewBox="0 0 16 16" width="16" xmlns="http://www.w3.org/2000/svg"><path d="m.9878879 3.2037295c-.4087899 0-.7378879.3290973-.7378879.7378883v8.1167642c0 .408792.329098.737889.7378879.737889h14.0242211c.408791 0 .737891-.329097.737891-.737889v-8.1167642c0-.408791-.3291-.7378883-.737891-.7378883zm1.0074382 1.4757755h1.2220901v1.4757754h-1.4757759v-1.1860814c0-.1608596.1134872-.289694.2536858-.289694zm1.9599782 0h1.4757747v1.4757754h-1.4757747zm2.2136628 0h1.4757754v1.4757754h-1.4757754zm2.2136628 0h1.2221641c.140199 0 .253613.1288344.253613.289694v1.1860814h-1.4757771zm2.2021541 0h1.475775v1.4757754h-1.475775zm2.213662 0h1.475776v1.4757754h-1.475776zm-10.318918 2.2136627h1.4757763v1.4757755h-1.4757763zm2.2136626 0h1.4757765v1.4757755h-1.4757765zm2.2136638 0h1.4757755v1.4757755h-1.4757755zm2.2021525 0h1.4757771v1.4757755h-1.4757771zm2.2136651 0h1.475774v1.4757755h-1.475774zm-7.1295477 2.9515508h7.6094707c.140197 0 .253611.128836.253611.2896955v.896386c0 .16086-.113414.289695-.253611.289695h-7.6094707c-.1401984 0-.2536848-.128835-.2536848-.289695v-.896386c0-.1608595.1134864-.2896955.2536848-.2896955z" fill="#2e3436" stroke-width="1.12717"/></svg>
