<svg height="16" viewBox="0 0 16 16" width="16" xmlns="http://www.w3.org/2000/svg"><path d="m3.53125 1c-1.667969 0-3.03125 1.363281-3.03125 3.03125v7.9375c0 1.667969 1.363281 3.03125 3.03125 3.03125h8.9375c1.667969 0 3.03125-1.363281 3.03125-3.03125v-7.9375c0-1.667969-1.363281-3.03125-3.03125-3.03125zm0 2h8.9375c.597656 0 1.03125.433594 1.03125 1.03125v5.96875h-11v-5.96875c0-.597656.4375-1.03125 1.03125-1.03125zm-1.03125 8h5v2h-3.96875c-.59375 0-1.03125-.433594-1.03125-1.03125zm6 0h5v.96875c0 .597656-.433594 1.03125-1.03125 1.03125h-3.96875zm0 0" fill="#2e3436"/></svg>
