<svg height="16" viewBox="0 0 16 16" width="16" xmlns="http://www.w3.org/2000/svg"><path d="m5.0938569 1.219c-.5335494 0-.9687143.4351649-.9687143.9687143v.9687143h7.7497144v-.9687143c0-.5335494-.435165-.9687143-.968714-.9687143zm-2.9061428 2.9061429c-1.0746674 0-1.9374286.8627611-1.9374286 1.9374285v3.8748572c0 1.0746674.8627612 1.9374284 1.9374286 1.9374284v.968714c0 1.055748.8816811 1.937429 1.9374285 1.937429h7.7497144c1.055748 0 1.937429-.881681 1.937429-1.937429v-.968714c1.074667 0 1.937429-.862761 1.937429-1.9374284v-3.8748572c0-1.0746674-.862762-1.9374285-1.937429-1.9374285zm1.9374285 5.8122857h7.7497144v2.9061424h-7.7497144zm0 0" fill="#2e3436" stroke-width=".968714"/></svg>