<svg height="16" viewBox="0 0 16 16" width="16" xmlns="http://www.w3.org/2000/svg"><path d="m5.375 1c-1.4389646 0-2.625 1.1860354-2.625 2.625v8.75c0 1.438965 1.1860354 2.625 2.625 2.625h5.25c1.438965 0 2.625-1.186035 2.625-2.625v-8.75c0-1.4389646-1.186035-2.625-2.625-2.625zm0 1.75h5.25c.499023 0 .875.375977.875.875v3.5c0 .485352-.389648.875-.875.875h-5.25c-.485352 0-.875-.389648-.875-.875v-3.5c0-.499023.375977-.875.875-.875zm1.2612302 7.0034178c.085449-.0102533.1708989.0068363.2460938.0410156l2.625 1.3124996c.3212895.164063.3212895.622071 0 .782715l-2.625 1.3125c-.2905271.146973-.632324-.064941-.632324-.389648v-2.625c0-.2221677.1674803-.4067385.3862302-.4340822zm0 0" fill="#2e3436" stroke-width=".875"/></svg>