<svg height="16" viewBox="0 0 16 16" width="16" xmlns="http://www.w3.org/2000/svg"><path d="m5.7443609 1.9849624c-.4141211 0-.7518797.3377587-.7518797.7518797 0 .4141211.3377586.7518797.7518797.7518797h.1057331l.387688 2.7020677c-1.2276782.652021-1.9942437 1.9237551-1.9971805 3.3129701h7.5187975c-.0029-1.389215-.769503-2.6609491-1.997181-3.3129701l.384751-2.7020677h.10867c.414121 0 .75188-.3377586.75188-.7518797 0-.199718-.0793-.3906248-.220278-.5316022-.140977-.1409775-.331884-.2202775-.531602-.2202775zm1.5037594 8.2706776v3.007518l.7518797.75188.7518797-.75188v-3.007518zm0 0" fill="#2e3436"/></svg>