<svg height="16" viewBox="0 0 16 16" width="16" xmlns="http://www.w3.org/2000/svg"><path d="m5.084133 4.5018221c-1.4149233 0-2.2352315 1.1145504-2.2352315 2.2564197 0 1.7128035 1.4638646 2.8311187 2.8787888 2.8311187 1.216337 0 2.309387-.768686 2.309387-2.2829043 0-1.3652771-1.2897869-2.8046341-2.9529443-2.8046341zm-.9719548 2.1054618c.2210818-.0081446.5175848.1968173.8713165.6250187.4468195.5957586.5703458.9667009.346938 1.1652871-.2234097.1985862-.5956555.0015391-1.0672976-.5693998-.4468175-.5709371-.5703458-.9455175-.346936-1.1441037.0558514-.0496461.1222843-.0740874.1959791-.0768023zm5.8846985-5.6066194c-1.3404536-.02482354-2.8541781.6455154-3.8719298 2.0604393-.1489411.1985862-.2721534.3976577-.4210935.7203596 1.7128035.2978793 3.1039031 1.8370128 3.1039031 3.5249928 0 .4716411-.1016703.9164249-.2754321 1.3135973 1.0425753-.1489392 1.6897936-.3950071 2.2855516-.7177128 1.315632-.744695 2.333223-1.961172 2.333223-3.7236197 0-2.0106826-1.416594-3.153233-3.1542223-3.1780565zm1.1679383 1.7585246c.119994-.00994.245529.0340342.323102.1271219.148938.1489392.122454.3976142-.026485.5217308l-1.165287.993143c-.148939.1241156-.3966269.1234431-.5455661-.0503196-.1241166-.1737637-.1012683-.3966276.04767-.5455658l1.1679361-.9666594c.055853-.0465433.126631-.0734877.19863-.0794509zm-.892506 6.2846037c-.6702266.2482342-1.4160652.3979311-2.2352317.4475772v4.764435c0 .471641.3218855.744195.8183482.744195h.622371c.4716401 0 .7945125-.24773.7945125-.744195z" fill="#2e3436" stroke-width=".945946"/></svg>