<svg height="16" viewBox="0 0 16 16" width="16" xmlns="http://www.w3.org/2000/svg"><path d="m11.085183 2.1941193v5.1847472l-7.3853286-.0081908c-.7074821-.0005165-1.2682296.0662286-1.7391701.2429923-.4536602.1621724-.8341117.4784148-1.0729886.8955224-.3130426.5638337-.36859453 1.274574-.38769573 2.0777216.01910635.803108.07466148 1.511168.38769573 2.074991.2388556.417107.6193068.736081 1.0729886.898252.4709405.176765 1.0316664.239753 1.7391701.240263l8.6030216.00546c.7064.000517 1.265503-.06457 1.736439-.240262.453663-.16217.836844-.481145 1.07572-.898252.312928-.565851.36578-1.275376.384965-2.080452-.019615-.7995157-.073616-1.5066748-.384965-2.0695308-.238853-.4171081-.622031-.7360803-1.07572-.8982526-.19647-.0733159-.410156-.1258885-.641608-.1638151v-5.2611942zm.131052 8.3927927h2.143247v1.070259h-2.143247z" fill="#2e3436"/></svg>