<svg height="16" viewBox="0 0 16 16" width="16" xmlns="http://www.w3.org/2000/svg"><path d="m5.2760355 2.5930039c-.4018833-.0052073-.8251069.0866335-1.2280548.285782-.059104.0298544-.1173076.0616695-.1740395.0955408-.0567307.0338702-.1121594.069844-.1662173.1075527.1417174.0700009.2772294.1514948.4050676.2435999.1278381.0921018.2479422.1947127.359254.3070129.3967136.4022485.6564906.902354.7651596 1.4328242.1086722.530468.0664491 1.0912471-.1405163 1.6152434.122516-.0226274.2439222-.0538602.3631646-.093304.1192404-.0394449.23636-.0869676.3500353-.1424737.5862352-.28951 1.0181114-.7513308 1.2428601-1.2638115.2247486-.5124795.242187-1.0755834-.0011173-1.5680333-.243356-.4923833-.7012309-.8208783-1.2448164-.9537261-.1698711-.041514-.3481047-.0638406-.5307796-.0662073zm5.4541745 0c-.182675.0023667-.36091.0246933-.53078.0662073-.5435871.1328478-1.0014618.4613428-1.2448178.9537261-.2433022.4924499-.2258638 1.0555538-.0011162 1.5680333.2247487.5124807.6566229.9743015 1.24286 1.2638115.113676.0555061.230793.1030288.350036.1424737.11924.0394438.240649.0706766.363163.093304-.206964-.5239963-.249186-1.0847754-.140516-1.6152434.108669-.5304702.368447-1.0305757.765159-1.4328242.111313-.1123002.231417-.2149111.359254-.3070129.12784-.0921051.263351-.173599.405068-.2435999-.054058-.0377087-.109487-.0736825-.166217-.1075527-.056732-.0338713-.114936-.0656864-.17404-.0955408-.402947-.1991485-.826171-.2909893-1.228053-.285782zm2.808378.5522897c-1.309782.0176619-2.35894 1.0906702-2.34716 2.4005176.011348.9781648.62023 1.8497061 1.534788 2.1968654v.8137674.0614588c0 .2768051.176275.4354699.456191.4525602v4.275284h.001118v.061459h.781641v-4.3364636c.27967-.0156422.456191-.1607984.456191-.4528396v-.8777401c.110464-.0432846.2164-.0951766.317629-.1542053.042516-.0247729.084254-.0508585.125153-.0782205.01656-.0111526.032359-.0233483.048606-.0349198.644266-.4400691 1.031843-1.1680388 1.037255-1.9482367l-.00028-.0430213c-.023592-1.3096927-1.101347-2.3539822-2.411132-2.3362655zm-11.1413292.0614589c-1.3097822.0176608-2.35893941 1.0906691-2.34716052 2.4005165.01134702.9781658.62023005 1.8497072 1.53478972 2.1968665v.8137673c0 .2920412.1765201.4371974.4561904.4528396v4.3364636h.7816418v-4.3364636c.2806071-.0167111.4573077-.1756413.4573077-.4528396v-.8162813c.9184753-.3516252 1.5259638-1.2321028 1.5286443-2.2155822l-.0002804-.0430214c-.0235933-1.3096926-1.1013479-2.3539821-2.411133-2.3362654zm11.1497102 1.3023636c.574916-.007792 1.047962.4506436 1.058205 1.02552l.00028.0187168c.000015.5748721-.464624 1.0416348-1.039489 1.0442379-.574882.0026493-1.043774-.4598742-1.048988-1.0347387-.005293-.5748989.455122-1.0459278 1.029992-1.053736zm-11.1413294.0614589c.5749161-.0077921 1.0479626.4506436 1.0582052 1.0255199l.0002793.018718c.0000161.5748709-.4646227 1.0416326-1.0394883 1.0442368-.5748828.0026493-1.0437752-.4598753-1.0489878-1.0347398-.0052921-.5748978.4551228-1.0459256 1.0299916-1.0537349zm.0262597.4478095c-.3094828 0-.6020148.2773605-.6020148.6031322 0 .3094816.2762421.6017365.6020148.6017355.3257695 0 .6031321-.2922539.6031321-.6017355 0-.3094839-.2936515-.6031322-.6031321-.6031322zm11.1424457 0c-.30948 0-.603131.2936483-.603131.6031322 0 .3094816.277361.6017355.603131.6017355.325773.000001.602015-.2922539.602015-.6017355 0-.3257717-.292532-.6031322-.602015-.6031322z" fill="#2e3436"/></svg>