<svg height="16" viewBox="0 0 16 16" width="16" xmlns="http://www.w3.org/2000/svg"><path d="m11.456317 3.7033512c-.050385.0034098-.131397.0176359-.292548.0713535-.334242.1193719-.549653.2862628-.740648.6921281-.310369.6446091-1.001882 2.0769256-1.3599965 2.8170325-.3342426.6923582-.3339341 1.1456279-.3339341 1.4798698 0 .3581162.0716645 2.4832169 1.5041306 3.4620659.023875.023875.07031.02426.094186.02426.071622 0 .263969.023874.526587 0 .47749 0 .739955-.382495 1.050324-1.003227.185182-.313386.557631-1.077253.873364-1.7438776a1.7099926 3.1301708 6.598288 0 0 .262582-.5608376c.097404-.209455.175969-.381211.22405-.4880573.214868-.4774885.215486-1.0979951.215486-1.5754836 0-.4774883-.166929-1.2899934-.429547-1.8152309-.262619-.525237-.812158-1.3599958-1.52839-1.3599958h-.024259c-.011938 0-.024591-.0011365-.041387 0zm-1.222996.2854135c-.5491126.1909954-1.1938791.4536539-1.5997439.6207748-.5491125.2387443-1.1933372 1.0510953-.8590963 1.9821978.310369 0 .4766416.1664273.4766416.3096738 0 .3581164-.7163887 1.3851452-.7163887 2.4117452 0 .5968604.1915757 1.2414727.4780679 1.7667107.1909949.381991.4291231.692356.6678682.883351.2626187.214872.6208522.310061.9789683.333936-1.4085908-1.074345-1.4556099-3.22228-1.4556099-3.4848985 0-.3581162.0000783-.8364177.3581944-1.5526504.3819927-.81173 1.0735043-2.2201721 1.3599965-2.8170326.0954979-.1909953.1917299-.3344357.3111019-.4538078zm-2.7699418 2.674326c-.1940573.0021104-.2461367.0333186-.4295474.2625805-.0477471.0477489-.0949572.119218-.1427044.1669669-.190996.2387443-.406562.3589658-.573683.4067146-.010444.010445-.016674.0161018-.019978.0214061-.000747.0014921-.002435.0055499-.002856.0071351-.000728.0042552-.001428.0110913-.001428.0185521-.023872.3342416-.047092.6687172-.047092 1.0745824 0 .6207349.02322 1.0985349.047092 1.4327766 0 .014921-.000119.029438.005709.038531l.001428.001427.001426.001426.001428.001428.001426.001427.001428.001427c.000531.000215.003709-.000175.004281 0l.001428.001427c.00131.000181.004215 0 .005708 0 .238745.071623.4293942.311333.5965154.502328.1432461.167121.2873424.333935.406715.333935h.1669662v-.024261c-.2387435-.549111-.3824546-1.1219854-.3824546-1.6710971 0-.6684838.2860303-1.3134821.5009019-1.7909706.1193725-.2626185.2154868-.4771425.2154868-.5965146 0-.0716232-.1194508-.191227-.3581959-.191227zm-3.2465812.3339339c-.42974 0-.835953.2150635-1.170197.4538077-.334239.2387441-.52516.2153735-.52516 1.0032292v.9789685c0 .2148697-.047942.381375.429547.667868.47749.286493.740265.573682 1.599744.573682.819194 0 1.4861774-.000817 1.5469434-.104176.002081-.004305.004282-.011035.004282-.015699 0-.095497-.02322-.142938-.047094-.333933-.023875-.21487-.04852-.6443814-.04852-1.5754835 0-.5968606.024645-.9557121.04852-1.1944562.047749-.4774883.096036-.4295475-.1427064-.4295475-.38199-.0238745-1.695359-.0242602-1.695359-.0242602z" fill="#2e3436" stroke-width=".238745"/></svg>
