<svg height="16" viewBox="0 0 16 16" width="16" xmlns="http://www.w3.org/2000/svg"><path d="m4.5000204 1.0000823c-1.1655203 0-1.9892468.7109336-2.3139512 1.3569256-.3247054.6494107-.3110334 1.268059-.3110334 1.268059v2.6249845h1.7499897v-2.6249845c0-.4853492.3896457-.8749949.8749949-.8749949h6.9999586c.485349 0 .874995.3896457.874995.8749949v2.6249845h1.74999v-2.6249845c0-1.1655203-.710934-1.9892468-1.356926-2.3139512-.64941-.32470537-1.268059-.3110334-1.268059-.3110334zm0 2.6249846v2.6249845h6.9999586v-1.7499897zm-3.4999794 3.4999793v1.7499897h13.999918v-1.7499897zm.8749948 2.6249846v2.6249842s-.013672.618649.3110334 1.268059c.3247044.645992 1.1484309 1.356926 2.3139512 1.356926h6.9999586c1.16552 0 1.989247-.710934 2.313951-1.356926.324705-.64941.311034-1.268059.311034-1.268059v-2.6249842h-1.74999v2.6249842c0 .485349-.389646.874995-.874995.874995h-6.9999586c-.4853492 0-.8749949-.389646-.8749949-.874995v-2.6249842z" fill="#2e3436" stroke-width=".874995"/></svg>