<svg height="16" viewBox="0 0 16 16" width="16" xmlns="http://www.w3.org/2000/svg"><path d="m5.375 1c-1.4389645 0-2.625 1.1860355-2.625 2.625v8.75c0 1.438965 1.1860355 2.625 2.625 2.625h5.25c1.438965 0 2.625-1.186035 2.625-2.625v-8.75c0-1.4389645-1.186035-2.625-2.625-2.625zm0 1.75h.875c0 .485352.389648.875.875.875h1.75c.485352 0 .875-.389648.875-.875h.875c.499023 0 .875.375977.875.875v7.875c0 .485352-.389648.875-.875.875h-5.25c-.485352 0-.875-.389648-.875-.875v-7.875c0-.499023.375977-.875.875-.875zm2.625 2.0524901c-.9292509 0-1.6880351.3053794-1.8269046 1.1552739-.03759.234927-.0423325.4437335.0119612.70581.2286629 1.0660169 2.082192 1.37592 2.3515625 2.0524901.05117.1263299.0359713.2897895.0119613.38794-.0438463.1733235-.1626301.3503413-.5092772.3503413-.3278537 0-.5263685-.1873043-.5263685-.4733881v-.5058594h-1.399657l-.0016625.4033199c0 1.1641672.9161714 1.5158692 1.8986809 1.5158692.9449134 0 1.7224961-.322092 1.8457049-1.1928709.0636825-.4510397.0157587-.7461903-.0051625-.8579104-.220318-1.0931663-2.202627-1.4194792-2.3498519-2.0302729-.0250687-.1044147-.0176662-.2173553-.0051625-.2768553.03654-.166019.1500153-.3486332.4768068-.3486332.3048876 0 .4853529.1883455.4853529.473389v.3229975h1.302245v-.3674318c0-1.1380687-1.0210166-1.3142089-1.7602542-1.3142089z" fill="#2e3436" stroke-width=".875"/></svg>