<svg height="16" viewBox="0 0 16 16" width="16" xmlns="http://www.w3.org/2000/svg"><path d="m-30-79c-.35156.00391-.69531.10156-1 .28125v3.4375c.30469.17969.64844.27734 1 .28125 1.10547 0 2-.89453 2-2s-.89453-2-2-2zm19 0v4c1.10547 0 2-.89453 2-2s-.89453-2-2-2zm4 .269531v3.449219c.61328-.35547.99609-1.00781 1-1.71875 0-.71484-.38281-1.374999-1-1.730469zm-23 4.730469c-.33984 0-.67969.058591-1 .175781v6.824219h4v-4c0-1.65625-1.34375-3-3-3zm19 0v7h3v-4c0-1.65625-1.34375-3-3-3zm4 .175781v6.824219h2v-4c0-1.26953-.80078-2.402339-2-2.824219zm10 74.824219c-1.644531 0-3 1.355469-3 3v7c0 1.644531 1.355469 3 3 3h3c.5625 0 1 .4375 1 1 0 .550781.449219 1 1 1 .0344238 0 .068017-.002435.1015625-.005859.5031822-.05137.8984375-.477784.8984375-.994141 0-.5625.4375-1 1-1h3c1.644531 0 3-1.355469 3-3v-7c0-1.644531-1.355469-3-3-3h-3c-.7649977 0-1.4674461.2941629-2 .7734375-.532554-.479275-1.235002-.7734375-2-.7734375zm0 2h3c.5625 0 1 .4375 1 1v8.173828c-.3134086-.112412-.6501639-.173828-1-.173828h-3c-.5625 0-1-.4375-1-1v-7c0-.5625.4375-1 1-1zm7 0h3c.5625 0 1 .4375 1 1v7c0 .5625-.4375 1-1 1h-3c-.3498361 0-.6865914.061416-1 .173828v-8.173828c0-.5625.4375-1 1-1zm-7 1v1h3v-1zm7 0v1h3v-1zm-7 2v1h3v-1zm7 0v1h3v-1zm-7 2v1h3v-1zm7 0v1h2v-1z" fill="#2e3436"/></svg>
