<svg height="16" viewBox="0 0 16 16" width="16" xmlns="http://www.w3.org/2000/svg"><path d="m5.375 1c-1.4389646 0-2.625 1.1860354-2.625 2.625v8.75c0 1.438965 1.1860354 2.625 2.625 2.625h5.25c1.438965 0 2.625-1.186035 2.625-2.625v-8.75c0-1.4389646-1.186035-2.625-2.625-2.625zm0 1.75h.875c0 .485352.389648.875.875.875h1.75c.485352 0 .875-.389648.875-.875h.875c.499023 0 .875.375977.875.875v7.875c0 .485352-.389648.875-.875.875h-5.25c-.485352 0-.875-.389648-.875-.875v-7.875c0-.499023.375977-.875.875-.875zm0 0" fill="#2e3436" stroke-width=".875"/></svg>