<svg height="16" viewBox="0 0 16 16" width="16" xmlns="http://www.w3.org/2000/svg"><path d="m5.3750001 1.0000002c-1.4389646 0-2.625 1.1860355-2.625 2.6250001v8.7499997c0 1.438965 1.1860354 2.625 2.625 2.625h5.2499999c1.438965 0 2.625-1.186035 2.625-2.625v-8.7499997c0-1.4389646-1.186035-2.6250001-2.625-2.6250001zm0 1.7500001h.875c0 .485352.3896479.875.875.875h1.75c.485352 0 .875-.389648.875-.875h.8749999c.499023 0 .875.375977.875.875v7.8749997c0 .485352-.389648.875-.875.875h-5.2499999c-.4853521 0-.875-.389648-.875-.875v-7.8749997c0-.499023.375977-.875.875-.875zm2.5976561 1.9790041c-.4206098 0-.753662.3282641-.753662.7434079 0 .4096916.3330522.7365724.753662.7365724.4260779 0 .7604985-.3268965.7604985-.7365724 0-.4151604-.3344206-.7434079-.7604985-.7434079zm-.6289061 2.4506834v4.1118162h1.2954104v-4.1118162z" fill="#2e3436" stroke-width=".875"/></svg>