<svg height="16" viewBox="0 0 16 16" width="16" xmlns="http://www.w3.org/2000/svg"><path d="m4.5 1c-1.4389646 0-2.625 1.1860354-2.625 2.625v8.75c0 1.438965 1.1860354 2.625 2.625 2.625h5.25c1.438965 0 2.625-1.186035 2.625-2.625v-6.282227l-1.75 1.7431645v2.7890625c0 .485352-.389648.875-.875.875h-5.25c-.485352 0-.875-.389648-.875-.875v-7c0-.499023.375977-.875.875-.875h5.25c.290527 0 .54004.1298832.697266.3349605l1.227051-1.2304688c-.481934-.5229489-1.165528-.8544917-1.924317-.8544917zm8.75.875c-.232422 0-.45459.0922854-.615234.2597656l-.003418-.0034177-5.506348 5.5268552v1.2167969h1.2167969l5.5268551-5.5063479-.003418-.0034177c.167481-.1606448.259766-.3828125.259766-.6152344 0-.4819334-.393067-.875-.875-.875zm-6.5830083 10.5h.0205083.875c.242676 0 .4375.194824.4375.4375s-.194824.4375-.4375.4375h-.875c-.242676 0-.4375-.194824-.4375-.4375 0-.23584.1845707-.427246.4169917-.4375zm0 0" fill="#2e3436" stroke-width=".875"/></svg>