<svg height="16" viewBox="0 0 16 16" width="16" xmlns="http://www.w3.org/2000/svg"><path d="m8.0034398.99999989c-3.908013 0-6.2703485 2.65247871-6.2703485 6.50596001 0 .1817709.0708022.3218968.1994954.4007106v.4815408l-.1100664.0068787c-.2695264.1122228-.4619059.3750818-.5245355.7326296-.073808.7524211.1016078 2.0439434.4213481 3.1489334.4802993 1.827269.8760059 2.519882 1.4721391 2.68287.7539325.206129 1.2957158-.400196 1.093785-1.246847l-1.1866537-4.6193518c-.0911587-.3455761-.3063017-.5718206-.6019259-.684476v-.5004581c.1271127-.0782757.1994955-.2184202.1994955-.4024302.00782-1.4623386.3862727-2.6912896 1.0748678-3.6184349 1.1990165-.6867364 2.5828099-1.0198352 4.2323991-1.0198352 1.6534088 0 3.0609852.3350246 4.2427182 1.0249943.687456.9236944 1.067868 2.1457157 1.083466 3.5960772 0 .1746182.066982.3084247.182298.3886728v.4695021h-.00516l.00516.0137584v.0447143c-.299902.1115598-.518517.3391156-.610526.6879153l-1.186655 4.6193518c-.201929.846651.341574 1.452976 1.095507 1.246847.596133-.162988.990118-.855601 1.470419-2.68287.319739-1.10499.495156-2.3965123.421348-3.1489334-.062631-.3575478-.25501-.6204068-.524535-.7326296l-.101467-.0068787v-.4970188c.126867-.0783242.199495-.218614.199495-.4024312 0-3.8534813-2.364055-6.48876141-6.2720682-6.48876141zm-3.3363894 7.00469831c-.0902422.0026734-.1839677.0170181-.2768858.0447145-.0498804.013067-.0940576.0316612-.1358635.0515938-.0749209.0242542-.1346279.0678863-.1754186.1255444-.0926116.101977-.127199.2310586-.0877088.3680349l.7051129 2.5470062.6621185 2.548727c.0769427.26655.2468694.38272.4660628.333637.043013-.011802.0843021-.02771.1221052-.048153.0238632-.004209.0472703-.008939.0722307-.015478.5285973-.157567.821721-.643712.6879153-1.147099l-1.1367795-4.1550085c-.0804937-.3028166-.2991351-.5191853-.5761292-.6088048-.0395711-.012803-.0804111-.0217025-.1221051-.0292364-.0379034-.0068479-.0759203-.0114408-.1152264-.0137583-.0294793-.0017382-.0593479-.0026108-.0894285-.0017198zm6.6641786 0c-.03008-.000891-.059949-.0000184-.089428.0017198-.039305.0023175-.079043.0069104-.116946.0137583-.041694.0075339-.080814.0164334-.120386.0292364-.276992.0896195-.497354.3059882-.577848.6088048l-1.1350597 4.1550085c-.1338057.503387.1575986.989532.6861951 1.147099.0249616.006539.0500866.011269.0739506.015478.037802.020443.077373.036351.120385.048153.219194.049083.390841-.067087.467783-.333637l.660398-2.548727.705114-2.5470062c.039488-.1369763.004902-.2660579-.087709-.3680349-.04079-.0576581-.098779-.1012902-.173699-.1255444-.041806-.0199326-.087703-.0385268-.137583-.0515938-.092918-.0276964-.184925-.0420411-.275167-.0447145z" fill="#2e3436" stroke-width=".880503"/></svg>