<svg height="16" viewBox="0 0 16 16" width="16" xmlns="http://www.w3.org/2000/svg"><path d="m3.15625 2.1875c-1.073375 0-1.9375.864125-1.9375 1.9375v4.1323242c-.57995282.3340492-.96875.9601887-.96875 1.6801758v1.9375c0 1.073375.864125 1.9375 1.9375 1.9375h6.78125c1.073375 0 1.9375-.864125 1.9375-1.9375v-.96875h2.90625c1.073375 0 1.9375-.864125 1.9375-1.9375v-4.84375c0-1.073375-.864125-1.9375-1.9375-1.9375zm.3878784 1.9375h1.1617432c.214675 0 .3878784.1732034.3878784.3878784v1.1617432c0 .214675-.1732034.3878784-.3878784.3878784h-1.1617432c-.214675 0-.3878784-.1732034-.3878784-.3878784v-1.1617432c0-.214675.1732034-.3878784.3878784-.3878784zm2.90625 0h1.1617432c.214675 0 .3878784.1732034.3878784.3878784v1.1617432c0 .214675-.1732034.3878784-.3878784.3878784h-1.1617432c-.214675 0-.3878784-.1732034-.3878784-.3878784v-1.1617432c0-.214675.1732034-.3878784.3878784-.3878784zm2.90625 0h1.1617426c.214675 0 .387879.1732034.387879.3878784v1.1617432c0 .214675-.173204.3878784-.387879.3878784h-1.1617426c-.214675 0-.3878784-.1732034-.3878784-.3878784v-1.1617432c0-.214675.1732034-.3878784.3878784-.3878784zm2.9062506 0h1.161742c.214675 0 .387879.1732034.387879.3878784v1.1617432c0 .214675-.173204.3878784-.387879.3878784h-1.161742c-.214675 0-.387879-.1732034-.387879-.3878784v-1.1617432c0-.214675.173204-.3878784.387879-.3878784zm-8.7187506 2.90625h1.1617432c.214675 0 .3878784.1732034.3878784.3878784v1.1617432c0 .214675-.1732034.3878784-.3878784.3878784h-1.1617432c-.214675 0-.3878784-.1732034-.3878784-.3878784v-1.1617432c0-.214675.1732034-.3878784.3878784-.3878784zm2.90625 0h1.1617432c.214675 0 .3878784.1732034.3878784.3878784v1.1617432c0 .214675-.1732034.3878784-.3878784.3878784h-1.1617432c-.214675 0-.3878784-.1732034-.3878784-.3878784v-1.1617432c0-.214675.1732034-.3878784.3878784-.3878784zm2.90625 0h1.1617426c.214675 0 .387879.1732034.387879.3878784v1.1617432c0 .214675-.173204.3878784-.387879.3878784h-1.1617426c-.214675 0-.3878784-.1732034-.3878784-.3878784v-1.1617432c0-.214675.1732034-.3878784.3878784-.3878784zm2.9062506 0h1.161742c.214675 0 .387879.1732034.387879.3878784v1.1617432c0 .214675-.173204.3878784-.387879.3878784h-1.161742c-.214675 0-.387879-.1732034-.387879-.3878784v-1.1617432c0-.214675.173204-.3878784.387879-.3878784zm-9.6875006 2.90625h3.0992432c.214675 0 .3878784.173204.3878784.387879v1.161742c0 .214675-.1732034.387879-.3878784.387879h-3.0992432c-.214675 0-.3878784-.173204-.3878784-.387879v-1.161742c0-.214675.1732034-.387879.3878784-.387879zm4.84375 0h1.1617432c.214675 0 .3878784.173204.3878784.387879v1.161742c0 .214675-.1732034.387879-.3878784.387879h-1.1617432c-.214675 0-.3878784-.173204-.3878784-.387879v-1.161742c0-.214675.1732034-.387879.3878784-.387879z" fill="#2e3436" stroke-width=".96875"/></svg>
