<svg height="16" viewBox="0 0 16 16" width="16" xmlns="http://www.w3.org/2000/svg"><path d="m6.5957031.49414062c-.1088513-.00058075-.2186415.02105249-.3222656.06835938-.273329.1261514-.4511719.40081077-.4511719.7011719v4.0722656l-1.8027344-1.5742187c-.3183821-.2793358-.8007426-.2500237-1.0800781.0683593-.2793355.3213857-.2491209.806602.0722657 1.0859375l1.9726562 1.7285156-1.9726562 1.7304688c-.3213868.279335-.3516012.7636494-.0722657 1.0820312.2793355.3213873.761696.3516007 1.0800781.0722657l1.8027344-1.5742188v4.0722659c0 .300361.1778429.575021.4511719.701172.276331.123148.5969946.076242.8222656-.125l1-.875v-2.0371098l-.7363281.6425778v-1.9941402l.7363281.6425781v-.6074219c0-.4581031.1521464-.837649.359375-1.1171875l-.6992187-.6132813 2.4160156-2.1132812c.168203-.1441733.263672-.3558584.263672-.578125 0-.2222668-.095469-.4319987-.263672-.5761719l-3.0761719-2.69140622c-.1407944-.12577619-.3185811-.19043828-.5-.19140626zm.7636719 2.46289058 1.1425781.9960938-1.1425781.9980469zm4.833984 3.65625c-.543652 0-.542968.5859375-.542968.5859376v.5878906h-.542969s-.383787-.0106938-.785156.2070312c-.4034923.2177234-.8476566.7712175-.8476566 1.5527344v4.693359s-.0064313.414159.1953125.84961c.2017469.433158.7133371.910156 1.4375001.910156h3.261719s.385569.010696.789062-.207031c.40137-.217722.841797-.771218.841797-1.552735v-4.693359c0-.7815169-.440427-1.335011-.841797-1.5527344-.403493-.217725-.789062-.2070312-.789062-.2070312h-.544922v-.5878906c0-.5867106-.542969-.5859375-.542969-.5859376zm-1.085937 2.3476563h3.261719c.301558 0 .544922.2604975.544921.5859375v4.693359c0 .325441-.243363.585938-.544921.585938h-3.261719c-.301558 0-.542969-.260497-.542969-.585938v-4.693359c0-.32544.241411-.5859375.542969-.5859375z" fill="#2e3436"/></svg>
