<svg height="16" viewBox="0 0 16 16" width="16" xmlns="http://www.w3.org/2000/svg"><path d="m4.2611981 1c-1.1741334.014-2.0343313-.02821875-2.7361979.3591146a1.7546667 1.7546667 0 0 0 -.78203128.9315104c-.154.4097333-.20963542.896175-.20963542 1.509375v5.6c0 .614133.05563542 1.100575.20963542 1.509375.15306667.409734.43016458.737377.78203128.93151.7018666.388267 1.5620645.345115 2.7361979.359115h1.8721354v.466667c0 1.4-.4666667 1.4-1.4 1.4h-.4666667v.933333h7.4666672v-.933333h-.466668c-.933332 0-1.3999992 0-1.3999992-1.4v-.466667h1.8721352c1.174134-.013067 2.033399.028218 2.736199-.359115a1.7546667 1.7546667 0 0 0 .782031-.93151c.153067-.4088.209634-.896175.209634-1.509375v-5.6c0-.6141333-.055634-1.0996417-.209634-1.509375a1.7546667 1.7546667 0 0 0 -.782031-.9315104c-.7028-.38826668-1.562065-.3451146-2.736199-.3591146h-7.4739581zm.0054687.9333333h7.4666672c1.175066.014 1.947983.0557376 2.289583.2442709.171734.0942666.270405.1994125.360938.4411458.090532.2426667.149479.6287167.149479 1.18125v5.6c0 .5525333-.058947.938583-.149479 1.18125-.091467.242667-.189204.346879-.360938.441146-.3416.188533-1.114517.230271-2.289583.244271h-1.8666672-3.7333333-1.8666667c-1.1741333-.014-1.9507395-.055738-2.2914062-.244271-.1708-.093334-.2676479-.198479-.3591146-.441146-.0905333-.242667-.1494792-.6287167-.1494792-1.18125v-5.6c0-.5525333.0589459-.9385833.1494792-1.18125.0914667-.2426667.1883146-.3468791.3591146-.4411458.3406667-.1885333 1.1154062-.2302709 2.2914062-.2442709z" fill="#2e3436" stroke-width=".933333"/></svg>