<svg height="16" viewBox="0 0 16 16" width="16" xmlns="http://www.w3.org/2000/svg"><path d="m8 1c-1.4526365 0-2.625 1.1723635-2.625 2.625v4.375c0 1.4526365 1.1723635 2.625 2.625 2.625s2.625-1.1723635 2.625-2.625v-4.375c0-1.4526365-1.1723635-2.625-2.625-2.625zm-5.25 5.25v1.7602541c0 2.5942379 1.8935542 4.7509759 4.375 5.1679689v1.821777h1.75v-1.821777c2.481446-.416993 4.375-2.573731 4.375-5.1679689v-1.7602541h-1.3125v1.7602541c0 2.1874999-1.743165 3.9272459-3.9375 3.9272459-2.1943355 0-3.9375-1.739746-3.9375-3.9272459v-1.7602541zm0 0" fill="#2e3436" stroke-width=".875"/></svg>