<svg height="16" viewBox="0 0 16 16" width="16" xmlns="http://www.w3.org/2000/svg"><path d="m8.0000002.99999991c-1.0766587 0-2.1328092.28369119-3.0624953.82031129-1.8935514 1.0937483-3.0624954 3.1171827-3.0624954 5.3046794v2.6249961c0 1.7499973 1.7499974 1.7499973 1.7499974 1.7499973h.8749986c.4853513 0 .8749987-.389647.8749987-.874999v-2.6249957c0-.4853513-.3896474-.8749987-.8749987-.8749987h-.8749986c0-1.5620091.8339831-3.0078079 2.1874966-3.7905214 1.3535136-.7792957 3.0214798-.7792957 4.3749935 0 1.353513.7827135 2.187496 2.2285123 2.187496 3.7905214h-.874998c-.485352 0-.874999.3896474-.874999.8749987v2.6249957c0 .485352.4375.874999.874999.874999h.874998c0 1.021971-.382811 1.29199-.830565 1.514158-.444334.222168-.919432.235839-.919432.235839h-3.4999944c-.4819327 0-.8749987.393066-.8749987.874999s.393066.874999.8749987.874999h3.4999944s.837402.010254 1.705565-.42041c.864743-.434081 1.794429-1.47656 1.794429-3.079585v-4.3749934c0-2.1874967-1.168944-4.2109311-3.062494-5.3046794-.929686-.5366201-1.985837-.82031129-3.0624958-.82031129zm0 0" fill="#2e3436" stroke-width=".874999"/></svg>