<svg height="16" viewBox="0 0 16 16" width="16" xmlns="http://www.w3.org/2000/svg"><path d="m8.0058594 0c-.1415634-.0007553-.2851567.02832028-.4199219.08984375-.355469.1640622-.5859375.51953125-.5859375.91015625v5.296875l-2.34375-2.046875c-.414062-.363281-1.042969-.3242193-1.40625.0898438-.363281.417968-.324219 1.0468752.09375 1.4101562l2.5664062 2.25-2.5664062 2.25c-.417969.363281-.457031.992188-.09375 1.40625.363281.417969.992188.457031 1.40625.09375l2.34375-2.046875v5.296875c0 .390625.2304685.746094.5859375.910156.359374.160156.7773435.101563 1.0703125-.160156l4-3.5c.21875-.1875.34375-.460938.34375-.75s-.125-.5625-.34375-.75l-3.140625-2.75 3.140625-2.75c.21875-.1875.34375-.460938.34375-.75s-.125-.5625-.34375-.75l-4-3.5c-.1831056-.16357425-.4144517-.24874117-.6503906-.25zm.9941406 3.203125 1.484375 1.296875-1.484375 1.296875zm5.699219 1.0273438-.556641.4980468a7.1040659 7.1040659 0 0 1 .757813 3.1796875 7.1040659 7.1040659 0 0 1 -.779297 3.2382809l.580078.494141a7.8094678 7.8094678 0 0 0 .945312-3.6835938 7.8094678 7.8094678 0 0 0 -.947265-3.7265624zm-13.72656275.0703124a7.8094678 7.8094678 0 0 0 -.9453125 3.6835938 7.8094678 7.8094678 0 0 0 .94726563 3.726563l.55664062-.498047a7.1040659 7.1040659 0 0 1 -.7578125-3.1796879 7.1040659 7.1040659 0 0 1 .7792969-3.2382812zm1.07226565.9570313a6.3211079 6.3211079 0 0 0 -.6386719 2.7480469 6.3211079 6.3211079 0 0 0 .5742188 2.6308596l.625-.548828a5.5571909 5.5571909 0 0 1 -.4140626-2.0605472 5.5571909 5.5571909 0 0 1 .4707032-2.2363282zm11.5097661 0-.625.5488281a5.5571909 5.5571909 0 0 1 .414062 2.0605469 5.5571909 5.5571909 0 0 1 -.470703 2.2363285l.617187.533203a6.3211079 6.3211079 0 0 0 .638672-2.7480471 6.3211079 6.3211079 0 0 0 -.574218-2.6308594zm-1.357422 1.1328125-1.753907 1.5429688-.02539.0273437-.001953.0019531c-.000607.0008362-.003391.0049825-.003907.0058594v.0019531c-.000332.0009369-.001713.0049032-.001953.0058594-.000147.0009684.000055.0048859 0 .0058594.000039.0009713-.000131.0048972 0 .0058593.000226.0009458.001634.0049372.001953.0058594l.001953.0019532c.000509.0008537.003303.0050505.003907.0058593l.001953.0019531 1.773437 1.5683594.064453-.0566406a5.0171371 5.0171371 0 0 0 .267579-1.5859375 5.0171371 5.0171371 0 0 0 -.208985-1.4335937zm-8.9394535.0566406a4.7145214 4.7145214 0 0 0 -.2695313 1.5410156 4.7145214 4.7145214 0 0 0 .265625 1.5273438l1.6894532-1.4863281.0253906-.0273438.0019531-.0019531c.000607-.0008361.0033902-.0049825.0039063-.0058594v-.0019531c.0003332-.0009369.0017118-.0049032.0019531-.0058594.0001489-.0009684-.0000562-.0048859 0-.0058593-.0000368-.0009714.0001302-.0048973 0-.0058594-.000224-.0009457-.0016349-.0049372-.0019531-.0058594l-.0019532-.0019531c-.0005075-.0008538-.0033034-.0050506-.0039062-.0058594l-.0019531-.0019531zm5.7421875 3.7558594 1.484375 1.296875-1.484375 1.296875z" fill="#2e3436"/></svg>
