<?xml version="1.0" encoding="UTF-8"?>
<svg height="16px" viewBox="0 0 16 16" width="16px" xmlns="http://www.w3.org/2000/svg">
    <g fill="#2e3436">
        <path d="M 13.833984,1.2753906 L 13.068359,2.8203125 C 13.973781,3.654403 14.527994,5.0486867 14.552734,6.5546875 V 6.6386715 C 14.547934,8.1745416 13.991325,9.6062262 13.068359,10.457031 L 13.835938,12.003906 C 15.124589,10.801549 15.898166,8.7911243 15.900391,6.6386715 V 6.5234371 C 15.870011,4.4120954 15.098903,2.4537164 13.833984,1.2753906 Z M 11.005859,2.5253906 L 10.240234,3.7089844 C 11.144915,4.3494156 11.698358,5.4191143 11.722656,6.5742188 V 6.6386718 C 11.718256,7.8166949 11.162463,8.9150942 10.240234,9.5683593 L 11.007812,10.755859 C 12.296648,9.8332089 13.070251,8.2903952 13.072266,6.6386718 V 6.5507808 C 13.041516,4.9312699 12.270452,3.4292254 11.005859,2.5253906 Z M 8.0117188,3.9589844 C 6.562688,3.9807644 5.4021786,5.3098052 5.4160156,6.9316406 C 5.4291996,8.5525176 6.6103086,9.8567134 8.0585938,9.8496094 C 9.5072238,9.8422094 10.677999,8.5256283 10.677734,6.9042969 V 6.8496099 C 10.651224,5.2291347 9.4597113,3.93724 8.0117188,3.9589844 Z M 7.9687498,10.9375 C 4.7659985,10.96704 2.2006352,12.777987 2.2304686,14.988281 C 2.2361086,15.330172 2.3050226,15.670165 2.4355467,16 H 13.660156 C 13.79464,15.658109 13.862941,15.305435 13.863281,14.951172 L 13.861281,14.878902 C 13.803851,12.669816 11.170084,10.908151 7.9687028,10.937496 Z" fill-opacity="0.34902"/>
        <path d="M 3.0855575,14.265272 L 14.265275,3.0855573 C 14.810324,2.5405087 15.514767,2.3612512 15.838689,2.6851783 C 16.162617,3.0091039 15.983361,3.7135461 15.438312,4.2585951 L 4.2585955,15.43831 C 3.7135457,15.983359 3.0091035,16.162616 2.6851779,15.83869 C 2.3612515,15.514765 2.5405079,14.810323 3.0855575,14.265272 Z"/>
    </g>
</svg>
