<svg height="16" viewBox="0 0 16 16" width="16" xmlns="http://www.w3.org/2000/svg"><path d="m9.9989023 3.1776974c-.282064-.3032099-.759415-.3204567-1.062625-.038393-.30321.2820638-.3204568.7594152-.038393 1.0626251l.072016.077415-1.7143319 2.1242734c-1.3135841-.4547768-2.7668374-.149842-3.785989.7942221l5.1211614 5.505091c1.0151511-.948365 1.4241662-2.375823 1.0653721-3.7188021l2.2404511-1.5587114.07402.079566c.282063.3032098.759415.320457 1.062625.038393.146229-.1360308.231994-.3241218.239192-.5233644.0072-.1992419-.06477-.393032-.200799-.5392609zm-5.0313676 6.7342958-2.2020355 2.0484638-.038393 1.062625 1.0626253.03839 2.2020355-2.048464zm0 0" fill="#2e3436"/></svg>