<svg height="16" viewBox="0 0 16 16" width="16" xmlns="http://www.w3.org/2000/svg"><path d="m-30-58c-.35156.00391-.69531.10156-1 .28125v3.4375c.30469.17969.64844.27734 1 .28125 1.10547 0 2-.89453 2-2s-.89453-2-2-2zm19 0v4c1.10547 0 2-.89453 2-2s-.89453-2-2-2zm4 .269531v3.449219c.61328-.35547.99609-1.00781 1-1.71875 0-.71484-.38281-1.374999-1-1.730469zm-23 4.730469c-.33984 0-.67969.058591-1 .175781v6.824219h4v-4c0-1.65625-1.34375-3-3-3zm19 0v7h3v-4c0-1.65625-1.34375-3-3-3zm4 .175781v6.824219h2v-4c0-1.26953-.80078-2.402339-2-2.824219zm14.0078125 52.824219c-.519531 0-1.035156.13671875-1.5.40234375-.925781.535156-1.5 1.52734425-1.5 2.59765625v7h-4v3c0 1.070312.574219 2.066406 1.5 2.601562.464844.265626.984376.398438 1.5.398438v.007812l6.9999995-.003906v-.003906h.015626c.792968 0 1.558593-.316406 2.121093-.875.558594-.5625.878906-1.328125.878907-2.125 0-.058594-.003906-.117188-.015626-.175781v-6.824219h3v-3c0-.796875-.316406-1.5585938-.878906-2.12109375-.5625-.5625-1.324218-.87890625-2.121094-.87890625zm0 2c.171876 0 .34375.0468748.5.1367188.3125.175781.5.5039062.5.8632812v3h2.9999995v7h.015626c0 .265625-.105469.519531-.292969.707031-.191407.1875-.445313.292969-.707031.292969-.0234385 0-.050782 0-.070313.003906l-4.125.003906c.113281-.320311.1796875-.660156.1796875-1.007812v-10c0-.359375.1875-.6875003.5-.8632812.15625-.089844.328126-.1367188.5-.1367188zm2.8203125 0h3.179687c.265626 0 .519532.1054687.707032.2929688.1875.1875.292969.4414062.292968.7070312v1h-4v-1c0-.347656-.066406-.683594-.179687-1zm-7.8203125 10h2v1c0 .359375-.1875.6875-.5.867188-.3125.179686-.6875.179686-1 0-.3125-.179689-.5-.507813-.5-.867188z" fill="#2e3436"/></svg>
