<svg height="16" viewBox="0 0 16 16" width="16" xmlns="http://www.w3.org/2000/svg"><path d="m7.9980469 0c-1.1733745.00013287-2.3480212.01783088-2.4960938.05273438-.5112063.12050099-.9349084.48661649-1.1328125.97656252-.0712249.176329-.0724899.1997314-.0878906 1.7089843l-.015625 1.5292969-1.53125.015625c-1.5092535.015401-1.5326554.0166656-1.7089844.0878907-.3549036.1433559-.68222175.4421286-.84960935.7753906-.1798395.358052-.17759015.3125643-.16796875 3.4882812.0088202 2.9113994.0096371 2.9122504.078125 3.0917964.2214056.580437.73166733.986334 1.3261719 1.054688.1429567.016437.8471625.031119 1.5644531.03125h1.3046875v.933594c0 .847022.0055703.952401.0625 1.136718.1603451.519138.6083707.936037 1.1464844 1.066407.2749042.066601 4.7183856.068349 4.9999996.001953.512204-.120763.939455-.4882 1.136719-.976563.071225-.176329.07249-.19973.087891-1.708984l.015625-1.53125 1.53125-.015625c1.509254-.015401 1.532655-.016667 1.708984-.087891.357171-.144273.679057-.439475.849609-.779297.176416-.351504.173327-.310646.173829-3.3847651.000442-2.7091642-.001931-2.8391704-.060547-3.0683594-.077573-.303306-.18425-.4869685-.421875-.7265625-.254038-.256143-.569639-.4099989-.927735-.4511719-.142957-.016436-.847163-.0291658-1.564453-.0292969h-1.304687v-.9335937c0-.847022-.005571-.9543539-.0625-1.1386719-.162576-.52635689-.609282-.93653822-1.160156-1.06640622-.147912-.03487001-1.3207666-.05286725-2.4941411-.05273438zm-2.2363281 1.0664062h2.2382812 2.238281l.136719.0722657c.085597.045156.165435.1190825.208984.1953125l.06836.1230468-.00586 2.8417969-.007812 2.84375-.076172.1054688c-.041252.057839-.132703.1301277-.203125.1621093-.121076.0549863-.250713.057945-2.4082031.0585938-2.4863046.0007475-2.4570236-.0008081-2.8261719.1816406-.2099239.1037538-.5490427.4356573-.6640625.6503906-.1739794.3248059-.1796875.3981015-.1796875 1.9726568v1.445312h-1.4316406-1.4335938l-.125-.089844c-.2402315-.174022-.2265625-.007788-.2265625-3.1054685v-2.7578125l.0703125-.1386719c.0463102-.091752.112983-.1629285.1953125-.2089843l.125-.0703126 3.5371094-.0019531h3.5371094v-.53125-.53125h-1.59375-1.5917969v-1.4121093c.0005108-1.4050232.0008322-1.4148615.0703125-1.5390626.0460562-.082329.1172328-.1490026.2089844-.1953124zm1.0507812.8398438a.7212435.7212435 0 0 0 -.7109375.7285156.7212435.7212435 0 0 0 .7246094.7148438.7212435.7212435 0 0 0 .71875-.7207032l-.0019531-.0136718a.7212435.7212435 0 0 0 -.7304688-.7089844zm4.902344 2.3769531h1.433594 1.43164l.125.0917969c.24024.174029.228516.0078354.228516 3.1074219v2.7578121l-.072266.138672c-.045278.085827-.118877.163534-.195312.207032l-.123047.070312h-3.53711-3.5390621v.53125.53125h1.59375 1.5937501l-.001953 1.414062c-.000511 1.404883-.000968 1.413298-.070313 1.535157-.043496.076435-.121204.150034-.207031.195312l-.136719.072266h-2.2402341-2.2382813l-.1386718-.072266c-.0855969-.045156-.1634828-.119082-.2070313-.195312l-.0703125-.123047.0078125-2.841797.0078125-2.8417969.0742188-.1054687c.0412519-.057839.1327028-.1320806.203125-.1640625.121076-.054986.2526661-.057945 2.4101562-.0585938 2.486304-.0007475 2.457024.0008082 2.826172-.1816406.209924-.1037537.547089-.4337042.662109-.6484375.173979-.3248057.179688-.3981022.179688-1.9726562zm-2.5468752 8.4843749a.7212435.7212435 0 0 0 -.7128907.726563.7212435.7212435 0 0 0 .7246094.714843.7212435.7212435 0 0 0 .71875-.720703v-.013672a.7212435.7212435 0 0 0 -.7304687-.707031z" fill="#2e3436"/></svg>