<svg height="16" viewBox="0 0 16 16" width="16" xmlns="http://www.w3.org/2000/svg"><path d="m4.8888888 1a1.5555555 1.5555555 0 0 0 -1.5555555 1.5555555v10.8888895a1.5555555 1.5555555 0 0 0 1.5555555 1.555555h6.2222222a1.5555555 1.5555555 0 0 0 1.555556-1.555555v-10.8888895a1.5555555 1.5555555 0 0 0 -1.555556-1.5555555zm3.1111112 1.5555555a1.5555555 1.5555555 0 0 1 1.5555556 1.5555557 1.5555555 1.5555555 0 0 1 -1.5555556 1.5555555 1.5555555 1.5555555 0 0 1 -1.5555556-1.5555555 1.5555555 1.5555555 0 0 1 1.5555556-1.5555557zm0 4.6666668a3.1111112 3.1111112 0 0 1 3.111111 3.1111107 3.1111112 3.1111112 0 0 1 -3.111111 3.111112 3.1111112 3.1111112 0 0 1 -3.1111112-3.111112 3.1111112 3.1111112 0 0 1 3.1111112-3.1111107zm0 1.5555554a1.5555555 1.5555555 0 0 0 -1.5555556 1.5555553 1.5555555 1.5555555 0 0 0 1.5555556 1.555555 1.5555555 1.5555555 0 0 0 1.5555556-1.555555 1.5555555 1.5555555 0 0 0 -1.5555556-1.5555553z" fill="#2e3436" stroke-width=".933333"/></svg>
