<svg height="16" viewBox="0 0 16 16" width="16" xmlns="http://www.w3.org/2000/svg"><path d="m6.1333773 1v5.6583333c-.1531245-.0328122-.3098956-.0473956-.4666667-.0473956-1.2869789 0-2.3260421 1.0390623-2.3296877 2.3260412 0 1.2869791 1.0427088 2.3296881 2.3296877 2.3296881 1.2760422-.003646 2.3114579-1.028125 2.3260422-2.304167h.0072912v-4.2291667h2.8l-2.8-3.7333333zm6.5333337 0c-.514062 0-.933333.4192711-.933333.9333333v13.0666667h1.866666v-2.8h1.866667v-2.8h-1.866667v-.9333333h1.866667v-2.8h-1.866667v-2.8h1.866667v-1.8666667zm-9.3333337 1.8666667c-1.2432289 0-2.1218754.7583333-2.46822889 1.4473956-.3463544.6927088-.33177106 1.3526044-.33177106 1.3526044v5.6000003s-.01458334.659895.33177106 1.352604c.34270789.689062 1.22499999 1.447396 2.46822889 1.447396h7.4666667v-1.866667h-7.4666667c-.6234377 0-.6781245-.175-.7984377-.419271-.1203123-.240625-.1348956-.514062-.1348956-.514062v-5.6000003s.0145833-.2734378.1348956-.5140623c.1203132-.2442711.175-.4192711.7984377-.4192711h1.8666667v-1.8666666zm10.2666667 3.7333333h.933334v.9333333h-.933334zm0 3.733333h.933334v.933334h-.933334zm0 0" fill="#2e3436" stroke-width=".933333"/></svg>
