<svg height="16" viewBox="0 0 16 16" width="16" xmlns="http://www.w3.org/2000/svg"><path d="m6.6000002 1c-.2479167 0-.4848959.0984375-.6598958.2734375l-1.5932292 1.5932292h-1.0135417c-1.5348956 0-2.8 1.2651044-2.8 2.8v6.5333333c0 1.534896 1.2651044 2.8 2.8 2.8h9.3333335c1.534896 0 2.799999-1.265104 2.799999-2.8v-6.5333333c0-1.5348956-1.265103-2.8-2.799999-2.8h-1.013542l-1.593229-1.5932292c-.1750002-.175-.4119792-.2734375-.6598958-.2734375zm.3864583 1.8666667h2.0270833l1.5932302 1.5932291c.175.175.411978.2734375.659894.2734375h1.400001c.532292 0 .933334.4010422.933334.9333334v6.5333333c0 .532291-.401042.933333-.933334.933333h-9.3333335c-.5322912 0-.9333333-.401042-.9333333-.933333v-6.5333333c0-.5322912.4010421-.9333334.9333333-.9333334h1.4c.2479167 0 .4848958-.0984374.6598958-.2734375zm1.0135417 1.8666666c-2.0526044 0-3.7333334 1.680729-3.7333334 3.7333334 0 2.0526043 1.680729 3.7333333 3.7333334 3.7333333 2.0526048 0 3.7333338-1.680729 3.7333338-3.7333333 0-2.0526044-1.680729-3.7333334-3.7333338-3.7333334zm0 1.8666667c1.0427088 0 1.8666666.8239579 1.8666666 1.8666667s-.8239578 1.8666663-1.8666666 1.8666663-1.8666667-.8239575-1.8666667-1.8666663.8239579-1.8666667 1.8666667-1.8666667z" fill="#2e3436" stroke-width=".933333"/></svg>
