<svg height="16" viewBox="0 0 16 16" width="16" xmlns="http://www.w3.org/2000/svg"><path d="m7.1250519.99999991c-.8749892 0-.8749942.87499419-.8749942.87499419v.8749943h-.8749943s-.6189822-.0142194-1.2683888.3104818c-.6459878.3247024-1.3565939 1.1489883-1.3565939 2.3145009v6.9999539s-.0142194.618874.3104818 1.264861c.3247023.649408 1.1489884 1.360122 2.3145009 1.360122h5.2499656s.618984.014217 1.268389-.310482c.645988-.324702 1.356594-1.148989 1.356594-2.314501v-6.9999539c0-1.1655126-.710606-1.9897985-1.356594-2.3145009-.649405-.324703-1.268389-.3104818-1.268389-.3104818h-.8749944v-.8749943c0-.874989-.8749942-.87499419-.8749942-.87499419zm-1.7341116 4.98182199h1.3301324v3.9745206c0 .3585525.1174847.6537715.3510561.8873435.2335715.23357.5427294.351055.9279174.351055.3872368 0 .6963947-.117485.9279173-.351055.2335714-.233572.3510561-.528791.3510561-.8873435v-3.9745206h1.3301324v4.0874231c0 .458947-.109178.86067-.326359 1.204881s-.5207055.613601-.9120402.806194c-.3913345.190545-.8482443.285784-1.3707066.285784-.5224624 0-.9793722-.095239-1.3707067-.285784-.3913347-.192593-.69486-.461983-.9120405-.806194-.2171803-.344211-.3263587-.745934-.3263587-1.204881z" fill="#2e3436" stroke-width=".90322"/></svg>