<svg height="16" viewBox="0 0 16 16" width="16" xmlns="http://www.w3.org/2000/svg"><path d="m5.2714844 2.837159c-.9885584-.018307-2.1048967.4760532-2.8554688 1.5195313-.1098398.1464532-.2007071.2932638-.3105468.53125 1.2631577.2196797 2.2890625 1.3547581 2.2890624 2.5996094 0 .3478261-.074979.677797-.203125.9707032.7688788-.1098398 1.2461876-.2932638 1.6855469-.53125.9702517-.5491992 1.7207032-1.4463226 1.7207031-2.7460938 0-1.4828376-1.0447072-2.3254434-2.3261718-2.3437501zm5.4570316 0c-1.2814662.018307-2.3261722.8609125-2.3261722 2.3437501 0 1.2814646.7504507 2.1785881 1.7207032 2.7460938.439359.2379861.916668.42141 1.685547.53125-.128146-.2929062-.203125-.6228771-.203125-.9707032 0-1.2448513 1.025904-2.3616229 2.289062-2.5996094-.09153-.2379861-.200707-.3847966-.310547-.53125-.750572-1.0251715-1.848603-1.5195313-2.855468-1.5195313zm-9.0800785 2.5820313c-1.0434782 0-1.6484375.8239104-1.6484375 1.6660157 0 1.263158 1.0795686 2.0859375 2.1230469 2.0859375.8970252 0 1.703125-.5668889 1.703125-1.6835938 0-1.006865-.9511897-2.0683593-2.1777344-2.0683594zm12.7031245 0c-1.226545 0-2.177734 1.0614944-2.177734 2.0683594 0 1.1350115.806099 1.6835938 1.703125 1.6835938 1.043478 0 2.123047-.8227795 2.123047-2.0859375 0-.8421053-.604959-1.6660157-1.648438-1.6660157zm-13.4199214 1.5527344c.1630435-.00601.3817086.1451481.6425782.4609375.3295194.4393593.420619.7129219.2558593.859375s-.4392832.00113-.7871094-.4199219c-.3295194-.4210525-.420619-.6953437-.2558594-.8417968.04119-.036613.0901835-.056592.1445313-.058594zm14.1367184.00977c.05435.00286.103342.025216.144532.066406.164759.1464531.07366.4207442-.25586.8417969-.347826.402746-.622349.5487968-.787109.4023437-.164759-.1464531-.07366-.4207443.255859-.8417969.26087-.3157895.479535-.4773312.642578-.4687497zm-9.5937496 1.7871094c-.4942792.1830664-1.0443184.2934649-1.6484375.3300782v3.5136717c0 .347826.2373828.550781.6035156.550781h.4589844c.3478261 0 .5859375-.184649.5859375-.550781zm5.0507816 0v3.8437499c0 .366132.238111.550781.585937.550781h.458983c.366136 0 .603517-.184649.603517-.550781v-3.5136717c-.604119-.036613-1.154158-.1470118-1.648437-.3300782z" fill="#2e3436"/></svg>