<svg height="16" viewBox="0 0 16 16" width="16" xmlns="http://www.w3.org/2000/svg"><path d="m4.494873 1c-1.10075.013125-1.9063105-.02645508-2.5651855.3366699a1.645 1.645 0 0 0 -.7331543.873291c-.144375.38325-.1965332.8401641-.1965332 1.4150391v5.25c0 .57575.0521582 1.0317895.1965332 1.41504.1435.384125.4041543.69129.7331543.87329.658875.364 1.4644355.323545 2.5651855.33667h1.755127v.875h3.5v-.875h1.755127c1.10075-.013125 1.906311.026455 2.565186-.33667a1.645 1.645 0 0 0 .733154-.87329c.1435-.3832514.196533-.840165.196533-1.41504v-5.25c0-.57575-.052158-1.0317891-.196533-1.4150391a1.645 1.645 0 0 0 -.733154-.873291c-.658875-.36399998-1.464436-.3235449-2.565186-.3366699h-7.006836zm.005127.875h7c1.101625.013125 1.826234.0522539 2.146484.2290039.161.0875.253504.1860742.338379.4135742.084876.2275.140137.5894219.140137 1.1074219v5.25c0 .518-.055261.8799219-.140137 1.1074219-.085749.2275001-.177379.3251991-.338379.4135741-.32025.17675-1.044859.215879-2.146484.229004h-7c-1.101625-.013125-1.8288183-.052254-2.1481933-.229004-.160125-.0875-.2509199-.186074-.33667-.4135741-.0848749-.2275-.1401367-.5894219-.1401367-1.1074219v-5.25c0-.518.0552618-.8799219.1401367-1.1074219.0857501-.2275.176545-.3251992.33667-.4135742.32025-.17675 1.0465683-.2158789 2.1481933-.2290039zm-.875 11.375-2.625.875v.875h14v-.875l-2.625-.875z" fill="#2e3436" stroke-width=".875"/></svg>