<svg height="16" viewBox="0 0 16 16" width="16" xmlns="http://www.w3.org/2000/svg"><path d="m2.671875 2.1875c-1.3244634 0-2.421875 1.0974116-2.421875 2.421875v6.78125c0 1.324463 1.0974116 2.421875 2.421875 2.421875h10.65625c1.324463 0 2.421875-1.097412 2.421875-2.421875v-6.78125c0-1.3244634-1.097412-2.421875-2.421875-2.421875zm0 1.9375h.96875c.268677 0 .484375.215698.484375.484375v.96875c0 .268677-.215698.484375-.484375.484375h-.96875c-.268677 0-.484375-.215698-.484375-.484375v-.96875c0-.2346196.1665039-.431396.3859868-.4730222.0302735-.0075689.0643308-.0113528.0983882-.0113528zm2.90625 0h.96875c.268677 0 .484375.215698.484375.484375v.96875c0 .268677-.215698.484375-.484375.484375h-.96875c-.268677 0-.484375-.215698-.484375-.484375v-.96875c0-.268677.215698-.484375.484375-.484375zm2.90625 0h.96875c.268677 0 .484375.215698.484375.484375v.96875c0 .268677-.215698.484375-.484375.484375h-.96875c-.268677 0-.484375-.215698-.484375-.484375v-.96875c0-.268677.215698-.484375.484375-.484375zm2.90625 0h.96875c.268677 0 .484375.215698.484375.484375v.96875c0 .268677-.215698.484375-.484375.484375h-.96875c-.268677 0-.484375-.215698-.484375-.484375v-.96875c0-.268677.215698-.484375.484375-.484375zm-7.75 2.90625h.96875c.268677 0 .484375.215698.484375.484375v.96875c0 .268677-.215698.484375-.484375.484375h-.96875c-.268677 0-.484375-.215698-.484375-.484375v-.96875c0-.268677.215698-.484375.484375-.484375zm2.90625 0h.96875c.268677 0 .484375.215698.484375.484375v.96875c0 .268677-.215698.484375-.484375.484375h-.96875c-.268677 0-.484375-.215698-.484375-.484375v-.96875c0-.268677.215698-.484375.484375-.484375zm2.90625 0h.96875c.268677 0 .484375.215698.484375.484375v.96875c0 .268677-.215698.484375-.484375.484375h-.96875c-.268677 0-.484375-.215698-.484375-.484375v-.96875c0-.268677.215698-.484375.484375-.484375zm2.90625 0h.96875c.268677 0 .484375.215698.484375.484375v.96875c0 .268677-.215698.484375-.484375.484375h-.96875c-.268677 0-.484375-.215698-.484375-.484375v-.96875c0-.268677.215698-.484375.484375-.484375zm-9.6875 2.90625h.96875c.268677 0 .484375.215698.484375.484375v.96875c0 .268677-.215698.484375-.484375.484375h-.96875c-.268677 0-.484375-.215698-.484375-.484375v-.96875c0-.268677.215698-.484375.484375-.484375zm2.90625 0h3.875c.268677 0 .484375.215698.484375.484375v.96875c0 .268677-.215698.484375-.484375.484375h-3.875c-.268677 0-.484375-.215698-.484375-.484375v-.96875c0-.268677.215698-.484375.484375-.484375zm5.8125 0h.96875c.268677 0 .484375.215698.484375.484375v.96875c0 .268677-.215698.484375-.484375.484375h-.96875c-.268677 0-.484375-.215698-.484375-.484375v-.96875c0-.268677.215698-.484375.484375-.484375zm0 0" fill="#2e3436" stroke-width=".96875"/></svg>