<svg height="16" viewBox="0 0 16 16" width="16" xmlns="http://www.w3.org/2000/svg"><path d="m4.3978762 13.967126h7.2042458c2.813765 0 4.147878-1.358351 4.147878-4.1236377v-3.25039h-4.220667c-.121266.3153584-.388074.5094136-.751945.5094136h-5.5062637c-.3395977 0-.6549185-.1940552-.7519449-.5094136h-4.2691794v3.25039c0 2.7895257 1.3583873 4.1236377 4.1478762 4.1236377zm3.589985-4.2691798c-.3395611 0-.6064046-.2668079-.6064046-.6064049 0-.3395956.2668435-.6306797.6064046-.6306797.3395968 0 .6306809.2910841.6306809.6306797.0242743.315358-.266809.6064049-.6306809.6064049zm-7.7378612-3.7355283h4.2206657c.0970263-.3153209.4123484-.5093761.7519449-.5093761h5.4820244c.339598 0 .63068.1940552.751947.5093761h4.220663v-.218292c0-2.4984425-1.479653-3.7112521-4.147912-3.7112521h-7.1314568c-2.6439475 0-4.1478762 1.2128096-4.1478762 3.7112521z" fill="#2e3436" stroke-width="1.21093"/></svg>
