<svg height="16" viewBox="0 0 16 16" width="16" xmlns="http://www.w3.org/2000/svg"><path d="m4 2c-1.597656 0-2.644531.664062-3 2l-.738281 8.324219c-.261719 1.59375 1.738281 2.175781 2.738281 1.175781l2.75-4.5h4.5l2.75 4.5c1 1 3 .527344 2.738281-1.175781l-.738281-8.324219c-.214844-1.203125-1.402344-2.03125-2.972656-2.027344zm.25 2h.5c.136719 0 .25.113281.25.25v.75h.75c.136719 0 .25.113281.25.25v.5c0 .136719-.113281.25-.25.25h-.75v.75c0 .136719-.113281.25-.25.25h-.5c-.136719 0-.25-.113281-.25-.25v-.75h-.75c-.136719 0-.25-.113281-.25-.25v-.5c0-.136719.113281-.25.25-.25h.75v-.75c0-.136719.113281-.25.25-.25zm5.765625-.113281c.59375 0 1.078125.484375 1.078125 1.082031s-.484375 1.082031-1.078125 1.082031c-.597656 0-1.082031-.484375-1.082031-1.082031s.484375-1.082031 1.082031-1.082031zm2.96875 2.019531c.597656 0 1.082031.484375 1.082031 1.078125 0 .597656-.484375 1.082031-1.082031 1.082031-.59375 0-1.078125-.484375-1.078125-1.082031 0-.59375.484375-1.078125 1.078125-1.078125zm0 0" fill="#2e3436"/></svg>
