<svg height="16" viewBox="0 0 16 16" width="16" xmlns="http://www.w3.org/2000/svg"><path d="m7.1201862.85c-2.4613844 0-4.4688967 2.0074465-4.4688967 4.46875v5.3625c0 2.461304 2.0075123 4.46875 4.4688967 4.46875h1.7596282c2.4613856 0 4.4688956-2.007446 4.4688956-4.46875v-5.3625c0-2.4613035-2.00751-4.46875-4.4688956-4.46875zm0 1.7875h1.7596282c1.5012726 0 2.6813396 1.180029 2.6813396 2.68125v5.3625c0 1.501221-1.180067 2.68125-2.6813396 2.68125h-1.7596282c-1.5012705 0-2.681338-1.180029-2.681338-2.68125v-5.3625c0-1.501221 1.1800675-2.68125 2.681338-2.68125zm.8658488.89375c-.4957687 0-.8937794.3979976-.8937794.89375v1.7875c0 .4957524.3980107.89375.8937794.89375.4957686 0 .8937794-.3979976.8937794-.89375v-1.7875c0-.4957524-.3980107-.89375-.8937794-.89375zm0 0" fill="#2e3436" stroke-width=".893764"/></svg>