<svg height="16" viewBox="0 0 16 16" width="16" xmlns="http://www.w3.org/2000/svg"><path d="m11.09421 7.4241425c-.606029 0-1.1209301.51537-1.1209301 1.1517028 0 .636345.4845961 1.1209416 1.1209301 1.1209416.636344 0 1.121524-.4845966 1.121524-1.1209416 0-.6363328-.48518-1.1517028-1.121524-1.1517028zm0 .4847119c.363621 0 .636229.3033815.636229.6669909 0 .3636225-.272608.6362306-.636229.6362306-.363611 0-.666523-.2726081-.636219-.6362306 0-.3636094.272608-.6669909.636219-.6669909zm-6.1509176.4545328c-1.2423731.1212037-2.5152909 1.1519428-2.5152909 2.7579388 0 1.727201 1.1514731 2.878674 2.8786838 2.878674.6666365 0 1.3029796-.242888 1.6665918-.485306-.9393478-1.605997-1.6057556-3.302904-2.0299847-5.1513068zm.6060394-6.3633872c-.4545216 0-.57585.1515075-.57585.4545225 0 .6969394.3636216 1.2121959 1.0605628 1.3333988 1.1514731.1818112 1.99968.3941662 2.9390391.8486887.3636225.1818103.5152556.4241147.4243434.7877259l-.4545206 2.636025c-.2424188 1.5150966.7877259 2.6667981 2.1513035 2.6667981.878763 0 1.848655-.545431 2.060769-1.6666018l.363382-1.9394288c.363622-2.0302246-1.151474-3.5453221-3.6362211-4.393769-1.454489-.51513-2.878319-.7273594-4.3328081-.7273594zm3.0301819 4.3333903c-1.4544891.3636234-2.4851035 1.0000819-2.9396353 1.93944.3939253 1.7272007 1.0003209 3.3029037 1.8790725 4.8482927.424229.212114.8782809.303024 1.4843222.303024 2.3029359 0 4.3636949-1.121055 4.4849099-3.363382-.454533.818143-1.363703 1.332802-2.393973 1.332802-1.8180991 0-3.0905482-1.5752211-2.7875332-3.4539392zm2.5146963 1.0907522c.636344 0 1.121524.51537 1.121524 1.1517028 0 .636345-.48518 1.1209416-1.121524 1.1209416-.636334 0-1.1209301-.4845966-1.1209301-1.1209416 0-.6363328.5149011-1.1517028 1.1209301-1.1517028zm0 .4847119c-.363611 0-.636219.3033815-.636219.6669909-.030304.3636225.272608.6362306.636219.6362306.363621 0 .636229-.2726081.636229-.6362306 0-.3636094-.272608-.6669909-.636229-.6669909z" fill="#2e3436" stroke-width=".9375"/></svg>