<svg height="16" viewBox="0 0 16 16" width="16" xmlns="http://www.w3.org/2000/svg"><path d="m10.915867 4.5018221c1.414923 0 2.235232 1.1145504 2.235232 2.2564197 0 1.7128035-1.463865 2.8311187-2.878789 2.8311187-1.2163373 0-2.3093873-.768686-2.3093873-2.2829043 0-1.3652771 1.2897869-2.8046341 2.9529443-2.8046341zm.971954 2.1054618c-.221081-.0081446-.517584.1968173-.871316.6250187-.446819.5957586-.570345.9667009-.346938 1.1652871.22341.1985862.595656.0015391 1.067297-.5693998.446819-.5709371.570347-.9455175.346937-1.1441037-.055851-.0496461-.122284-.0740874-.19598-.0768023zm-5.8846978-5.6066194c1.3404537-.02482354 2.8541781.6455154 3.8719299 2.0604393.1489409.1985862.2721529.3976577.4210939.7203596-1.7128039.2978793-3.1039035 1.8370128-3.1039035 3.5249928 0 .4716411.1016703.9164249.275432 1.3135973-1.0425752-.1489392-1.6897933-.3950071-2.285551-.7177128-1.3156321-.744695-2.333223-1.961172-2.333223-3.7236197 0-2.0106826 1.4165938-3.153233 3.1542217-3.1780565zm-1.1679377 1.7585246c-.1199941-.00994-.2455287.0340342-.323102.1271219-.1489392.1489392-.1224546.3976142.0264837.5217308l1.1652881.993143c.1489392.1241156.3966266.1234431.5455658-.0503196.1241166-.1737637.1012682-.3966276-.04767-.5455658l-1.1679358-.9666594c-.0558525-.0465433-.126631-.0734877-.1986298-.0794509zm.8925057 6.2846037c.6702264.2482342 1.416065.3979311 2.2352315.4475772v4.764435c0 .471641-.3218856.744195-.8183483.744195h-.6223709c-.4716401 0-.7945123-.24773-.7945123-.744195z" fill="#2e3436" stroke-width=".945946"/></svg>