<svg height="16" viewBox="0 0 16 16" width="16" xmlns="http://www.w3.org/2000/svg"><path d="m6.2968749 5.2560205c-.032181.0021778-.0826209.0106126-.1855469.0449218-.213481.0762427-.3526214.1841341-.4746094.4433594-.198232.4117105-.6384605 1.3261235-.8671875 1.7988282-.21348.4422077-.2148437.7318329-.2148437.9453124 0 .2287281.0460245 1.5857497.9609375 2.2109377.015249.015249.0452979.015625.0605468.015625.0457451 0 .1682035.015248.3359376 0 .304971 0 .4736429-.244165.671875-.640625.1182759-.2001588.3549826-.6894629.5566406-1.1152345a1.0921687 1.9992336 6.598288 0 0 .1679687-.3574219c.062211-.1337785.1138223-.2442575.1445313-.3125.137236-.3049709.1367187-.7008885.1367187-1.0058594 0-.3049708-.1057035-.822735-.2734375-1.1582031-.167734-.3354678-.5191065-.8691406-.9765625-.8691406h-.015625c-.007625 0-.0166157-.0007259-.0273437 0zm3.3632812 0c-.4574557 0-.8068752.5336728-.9746094.8691406-.1677339.3354681-.2753906.8532323-.2753906 1.1582031 0 .3049709.0014357.7008885.1386719 1.0058594.030709.0682425.0803668.1787215.1425781.3125a1.9992336 1.0921687 83.401712 0 0 .1679688.3574219c.2016583.4257716.4383651.9150754.5566406 1.1152345.1982319.39646.3669033.640625.6718745.640625.167733.015248.290192 0 .335937 0 .013343 0 .038587-.001456.054688-.011719.001059-.000839.004906-.002953.005859-.003906.914913-.625189.960938-1.9822096.960938-2.2109377 0-.2134795.000589-.5031047-.212891-.9453124-.228727-.4727048-.670908-1.3871177-.86914-1.7988282-.121988-.2592253-.259177-.3671167-.4726561-.4433594-.1029269-.0343092-.1553186-.042744-.1875-.0449218-.0107275-.0007259-.0197196 0-.0273438 0zm-4.1445312.1816406c-.350717.1219884-.7622594.2897446-1.0214844.3964844-.350717.1524855-.7623071.6709318-.5488281 1.265625.198232 0 .3046875.1077275.3046875.1992187 0 .2287282-.4570313.8833752-.4570313 1.5390625 0 .3812135.1217055.793438.3046875 1.1289063.121988.243977.2752484.442466.4277344.564453.167734.137238.396272.197642.625.212891-.899664-.686182-.9296875-2.0568758-.9296875-2.2246097 0-.228728-.0002124-.5347312.2285156-.9921874.243978-.5184504.6861587-1.4176146.8691407-1.7988282.0609939-.1219883.1210226-.2147729.1972656-.2910156zm4.9687491 0c.076243.0762427.138225.1690273.199219.2910156.182982.3812136.62321 1.2803778.867188 1.7988282.228728.4574562.228515.7634594.228515.9921874 0 .1677339-.030023 1.5384277-.929687 2.2246097.228728-.015249.459219-.075653.626953-.212891.152486-.121988.303793-.320477.425781-.564453.182982-.3354683.304688-.7476928.304688-1.1289063 0-.6556873-.457032-1.3103343-.457032-1.5390625 0-.0914912.106456-.1992187.304688-.1992187.213479-.5946932-.198111-1.1131395-.548828-1.265625-.259225-.1067398-.670768-.274496-1.021485-.3964844zm-6.7363273 1.7089844c-.1239439.0013479-.1582466.0215396-.2753906.1679687-.030496.0304971-.0613009.0749717-.0917968.1054688-.1219891.1524855-.2584944.2292685-.3652344.2597656-.0050033.0050034-.0113499.0109138-.0136719.0136719-.000477.000953-.0016841.0048469-.0019531.0058594-.000465.0027178 0 .0069535 0 .0117187-.015247.2134794-.03125.4263217-.03125.6855469 0 .3964621.016003.7025362.03125.9160156 0 .0047652-.0004463.0113899 0 .015625.0001773.0009944.001695.004942.0019531.0058594v.0019531h.0019531v.0019531h.0019532v.0019532h.0019531v.0019531h.0019531.0019531.0019531.0019532c.152486.0457453.2741194.1983247.3808594.3203125.0914909.1067402.1835226.2128906.2597656.2128906h.1054687v-.0136719c-.152485-.350716-.2441406-.7176428-.2441406-1.0683593 0-.4269592.1830745-.8395604.3203125-1.1445313.076243-.1677339.1386719-.3046167.1386719-.3808594 0-.0457456-.0760297-.1210937-.2285157-.1210937zm8.5058593 0c-.152486 0-.228516.0753481-.228516.1210937 0 .0762427.060476.2131255.136719.3808594.137238.3049709.320312.7175721.320312 1.1445313 0 .3507165-.091655.7176433-.24414 1.0683593v.0136719h.105468c.076243 0 .168275-.1061504.259766-.2128906.10674-.1219878.228373-.2745672.380859-.3203125h.001953.001954.001953.001953l.001953-.0019531.001953-.0019532v-.0019531h.001953v-.0019531c.000258-.0009174.001776-.004865.001953-.0058594.000447-.0042351 0-.0108599 0-.015625.015247-.2134794.03125-.5195535.03125-.9160156 0-.2592252-.016003-.4720675-.03125-.6855469 0-.0047652.000465-.0090009 0-.0117187-.000269-.0010125-.001476-.0049064-.001953-.0058594-.002322-.0027581-.008668-.0086685-.013672-.0136719-.10674-.0304971-.243245-.1072801-.365234-.2597656-.030496-.0304971-.061301-.0749717-.091797-.1054688-.117144-.1464291-.149493-.1666208-.273437-.1679687zm-10.580078.2128906c-.274474 0-.5345659.1365771-.74804693.2890625-.21347799.1524854-.33593749.1374232-.3359375.640625v.6269531c0 .1372368-.02958037.2427988.27539063.4257813.304972.1829826.4725374.3671875 1.0214844.3671875.4986909 0 .9114399-.0033422.9824219-.0605469.0009801-.0009685.005065-.0048596.0058594-.0058594.0003322-.0006874.0016344-.0050231.0019531-.0058593v-.0019532-.0019531-.0019531c0-.0609934-.0140489-.0909022-.0292969-.2128906-.015249-.1372369-.03125-.4111664-.03125-1.0058594 0-.3812136.016001-.6111865.03125-.7636719.0162016-.1620157.0306736-.2303149.0195313-.2578125v-.0019531l-.0019531-.0019531-.0019532-.0019532-.0019531-.0019531-.0019531-.0019531h-.0019532l-.0019531-.0019532c-.0165519-.0076387-.047193-.0039062-.0996093-.0039062-.243976-.0152486-1.0820313-.015625-1.0820313-.015625zm12.652343 0s-.838055.0003764-1.082031.015625c-.052416 0-.083057-.0037325-.099609.0039062l-.001954.0019532h-.001953l-.001953.0019531-.001953.0019531-.001953.0019532-.001953.0019531v.0019531c-.011142.0274976.00333.0957968.019531.2578125.015249.1524854.03125.3824583.03125.7636719 0 .594693-.016001.8686225-.03125 1.0058594-.015248.1219884-.029297.1518972-.029297.2128906v.0019531.0019531.0019532c.000319.0008362.001621.0051719.001953.0058593.000795.0009998.00488.0048909.00586.0058594.070982.0572047.48373.0605469.982422.0605469.548947 0 .716512-.1842049 1.021484-.3671875.304971-.1829825.275391-.2885445.275391-.4257813v-.6269531c0-.5032018-.12246-.4881396-.335938-.640625-.213481-.1524854-.473573-.2890625-.748047-.2890625z" fill="#2e3436" stroke-width=".152486"/></svg>
