<svg viewBox="0 0 16 16" xmlns="http://www.w3.org/2000/svg"><path d="M7.999 0c-.713 1.746-1.142 2.888-1.935 4.582a12.49 12.49 0 002.052 1.793c-1.042-.428-1.753-.859-2.284-1.305C4.817 7.187 3.227 10.203 0 16c2.536-1.464 4.302-2.366 6.135-2.71a4.641 4.641 0 01-.12-1.087l.002-.081c.04-1.625 1.103-2.92 2.087-2.922.983-.002 1.94 1.604 1.9 3.229a4.59 4.59 0 01-.103.872c1.812.355 3.597 1.255 6.099 2.699-.493-.908-.934-1.727-1.354-2.506-.663-.513-1.353-1.181-2.763-1.905.969.252 1.663.542 2.203.867C9.811 4.498 9.465 3.44 7.998 0z" fill="gray" fill-rule="evenodd"/></svg>