<svg viewBox="0 0 16 16" xmlns="http://www.w3.org/2000/svg"><path d="M8.004.15C3.586.15.01 3.661.001 7.996H0v6.074h.001c.002.984.816 1.78 1.818 1.78h6.186C12.424 15.847 16 12.336 16 8.004 16 3.668 12.42.157 7.997.157zM9.63 3.38c1.343 0 2.612 1.01 2.612 2.402 0 .129 0 .258-.021.404a.665.665 0 01-.758.585.657.657 0 01-.561-.77c.006-.04.008-.107.008-.22 0-.789-.658-1.093-1.28-1.093-.623 0-1.184.513-1.184 1.094.01.671 0 1.338 0 2.008L9.6 7.782c.901-.019.912 1.313.01 1.307l-1.165.009c-.003.54.004.442.001.714 0 0 .01.661-.01 1.162-.14 1.47-1.416 2.646-2.95 2.646-1.627 0-2.966-1.304-2.966-2.903.049-1.644 1.385-2.937 3.07-2.923l.939-.007v1.306l-.94.008h-.004c-.926.027-1.719.643-1.734 1.615 0 .886.73 1.596 1.635 1.596.904 0 1.628-.646 1.628-1.594l-.001-4.943c0-.092.003-.165.013-.266.153-1.209 1.256-2.13 2.504-2.13z" fill="gray"/></svg>