<svg viewBox="0 0 16 16" xmlns="http://www.w3.org/2000/svg"><g class="prefix__logofill" stroke-width="1.792" fill="gray"><path d="M13.136 0c-3.328 0-3.953 4.74-2.08 4.74 1.872 0 5.409-4.74 2.08-4.74zM7.61 4.153C8.605 4.214 9.7.35 7.825.592c-1.873.243-1.214 3.5-.217 3.561zM3.04 6.555c.71-.312.091-3.365-1.114-2.532-1.206.833.405 2.844 1.114 2.532zM5.038 4.957c.844-.172.89-3.634-.615-3.013s-.228 3.186.615 3.013zM9.446 12.706c.15 1.144-.84 1.709-1.808.971-3.083-2.347 5.105-3.518 4.565-6.725-.448-2.662-8.615-1.842-9.545 2.323C2.028 12.092 5.249 16 8.61 16c1.653 0 3.56-1.493 3.917-3.384.273-1.442-3.206-.864-3.081.09z"/></g></svg>