<svg viewBox="0 0 16 16" xmlns="http://www.w3.org/2000/svg"><path d="M7.758 3.91c0 .053-.053.053-.053.053h-.053c-.053 0-.053-.053-.106-.106 0 0-.053-.053-.053-.106s0-.053.053-.053l.106.053c.053.053.106.106.106.159m-.954-.53c0-.265-.106-.424-.265-.424 0 0 0 .053-.052.053v.106h.158c0 .106.053.159.053.265h.106m1.854-.265c.106 0 .16.106.212.265h.106c-.053-.053-.053-.106-.053-.16 0-.052 0-.105-.053-.158-.053-.053-.106-.106-.159-.106 0 0-.053.053-.105.053 0 .053.052.053.052.106m-1.589.848c-.053 0-.053 0-.053-.053s0-.106.053-.16c.106 0 .16-.052.16-.052.052 0 .052.053.052.053 0 .053-.053.106-.159.212H7.07m-.582-.053c-.212-.106-.265-.265-.265-.53 0-.16 0-.265.106-.371a.291.291 0 01.264-.159c.106 0 .16.053.265.159.053.159.106.318.106.477v.106h.053v-.053c.053 0 .053-.106.053-.318 0-.16 0-.318-.106-.477-.106-.159-.212-.265-.424-.265a.398.398 0 00-.37.265c-.106.212-.127.37-.127.636 0 .212.074.424.286.635.053-.052.106-.052.159-.105m6.621 7.469c.053 0 .053-.021.053-.069 0-.116-.053-.254-.212-.408-.158-.159-.423-.26-.741-.302-.053-.005-.106-.005-.106-.005-.053-.01-.053-.01-.106-.01-.053-.006-.159-.017-.212-.027.159-.493.212-.927.212-1.309 0-.53-.106-.9-.318-1.218-.212-.318-.424-.477-.689-.53-.053.053-.053.053-.053.106.265.106.53.318.69.636.158.37.211.689.211 1.06 0 .296-.053.736-.265 1.297-.212.085-.424.281-.583.588 0 .048 0 .074.053.074 0 0 .053-.047.106-.137.106-.09.16-.18.265-.27.16-.09.265-.138.424-.138.265 0 .53.037.689.111.212.069.317.143.37.228.053.08.106.153.16.222 0 .07.052.101.052.101M8.235 3.698c-.053-.053-.053-.16-.053-.265 0-.212 0-.318.106-.477.106-.106.212-.159.318-.159.158 0 .264.106.37.212.053.159.106.265.106.424 0 .265-.106.424-.318.477 0 0 .053.053.106.053.106 0 .16.052.265.105.053-.317.106-.53.106-.794 0-.318-.053-.53-.159-.689a.68.68 0 00-.53-.212.854.854 0 00-.476.16c-.106.158-.16.264-.16.423 0 .265.054.477.16.689.053 0 .106.053.159.053m.635.847c-.688.477-1.218.689-1.642.689-.37 0-.741-.159-1.06-.424.054.106.107.212.16.265l.317.318c.212.212.477.318.742.318.37 0 .795-.212 1.324-.583l.477-.318c.106-.106.212-.212.212-.37 0-.054 0-.107-.053-.107-.053-.106-.318-.265-.847-.423-.477-.212-.848-.318-1.06-.318-.159 0-.424.106-.795.318-.317.211-.53.423-.53.635 0 0 .054.053.107.16.317.264.635.423.953.423.424 0 .954-.212 1.642-.742v.106c.053 0 .053.053.053.053m1.219 10.701c.212.399.583.599 1.006.599.106 0 .212-.016.318-.048a.692.692 0 00.265-.1c.053-.038.106-.075.159-.117.106-.037.106-.064.159-.09l.9-.779c.212-.169.424-.317.69-.445.211-.127.423-.212.529-.26a.945.945 0 00.37-.19.547.547 0 00.107-.307c0-.154-.106-.27-.212-.355a1.078 1.078 0 00-.318-.18c-.106-.038-.212-.122-.37-.265a1.429 1.429 0 01-.266-.578l-.053-.307c-.053-.143-.053-.249-.106-.307 0-.016 0-.021-.053-.021a.29.29 0 00-.212.137c-.106.09-.211.191-.317.297-.053.106-.212.201-.318.291a.952.952 0 01-.424.138c-.424 0-.636-.117-.795-.344-.106-.17-.159-.366-.212-.588-.106-.09-.159-.138-.264-.138-.265 0-.371.275-.371.832V13.769c0 .047-.053.153-.053.317-.053.164-.053.35-.053.562l-.106.588v.009m-7.682-.28c.493.071 1.06.226 1.7.46.642.234 1.034.356 1.177.356.37 0 .678-.165.932-.482.053-.103.053-.223.053-.362 0-.5-.302-1.134-.906-1.902l-.36-.482a5.007 5.007 0 01-.28-.461 4.53 4.53 0 00-.292-.477 1.43 1.43 0 00-.323-.365 1.088 1.088 0 00-.472-.244c-.222.042-.376.117-.45.217a.648.648 0 00-.127.329c-.016.11-.048.185-.1.222a.966.966 0 01-.265.085c-.027 0-.075 0-.144.005h-.143c-.28 0-.471.032-.572.085a.777.777 0 00-.201.514c0 .085.021.228.064.429.042.196.063.355.063.466 0 .217-.063.435-.196.652-.132.228-.201.397-.201.518.053.205.402.35 1.043.435m1.765-4.816c0-.365.095-.768.29-1.245.192-.476.382-.794.568-1.006-.01-.053-.037-.053-.08-.053l-.053-.053c-.153.159-.339.53-.561 1.06-.223.476-.34.916-.34 1.24 0 .237.059.444.165.624.116.175.397.43.842.752l.562.366c.598.52.916.88.916 1.091 0 .111-.053.223-.212.345a.501.501 0 01-.37.19c-.011 0-.016.01-.016.037 0 .006.053.112.164.318.222.302.7.45 1.335.45 1.165 0 2.066-.476 2.754-1.43 0-.265 0-.429-.052-.498v-.196c0-.344.052-.604.158-.773.106-.17.212-.25.371-.25.106 0 .212.038.318.117.053-.408.053-.763.053-1.08 0-.482 0-.88-.106-1.25a2.792 2.792 0 00-.265-.795l-.318-.477c-.106-.159-.159-.318-.264-.477-.053-.212-.106-.37-.106-.635-.16-.265-.265-.53-.424-.795-.106-.265-.212-.53-.318-.742l-.477.371c-.53.37-.953.53-1.324.53-.318 0-.583-.053-.742-.265l-.318-.265c0 .159-.053.37-.159.583l-.333.636c-.149.37-.228.582-.244.741-.021.106-.037.212-.048.212l-.397.795c-.43.794-.646 1.53-.646 2.14 0 .122.01.249.031.376a.785.785 0 01-.354-.689m3.793 5.012c-.69 0-1.219.093-1.59.278v-.016c-.265.318-.561.482-.974.482-.26 0-.668-.1-1.219-.302a14.387 14.387 0 00-1.478-.433 3.172 3.172 0 00-.291-.055 11.062 11.062 0 01-.408-.072 3.074 3.074 0 01-.376-.109.93.93 0 01-.318-.163.3.3 0 01-.11-.226c0-.085.019-.175.055-.272.034-.058.07-.116.108-.17.037-.057.069-.11.09-.163a.776.776 0 00.074-.149c.021-.047.042-.095.053-.153.01-.053.021-.106.021-.16a5.61 5.61 0 00-.063-.492 4.775 4.775 0 01-.064-.524c0-.233.053-.419.17-.551.116-.133.227-.202.344-.202h.61c.047 0 .121-.026.232-.09.037-.084.07-.153.09-.217.027-.063.037-.111.048-.132.01-.032.021-.064.032-.09a.731.731 0 01.085-.122.32.32 0 01-.064-.207c0-.058 0-.111.01-.143 0-.19.09-.46.281-.816l.186-.333c.153-.286.27-.498.355-.71.09-.212.185-.53.291-.954.085-.37.286-.741.604-1.112l.397-.477c.276-.318.456-.583.556-.795.101-.212.154-.476.154-.688 0-.106-.026-.424-.085-.954-.053-.53-.08-1.06-.08-1.536 0-.37.033-.636.102-.9.068-.266.19-.53.37-.742.16-.212.371-.424.689-.53A3.522 3.522 0 017.965 0c.158 0 .317 0 .476.053.16 0 .371.053.636.159.212.106.424.212.583.37.212.16.37.425.53.69.105.317.211.635.264 1.059.053.265.053.53.106.9 0 .318.053.53.053.69.053.158.053.37.106.635.053.212.106.424.212.583.106.211.212.423.37.635.16.265.372.53.584.848.476.53.847 1.112 1.06 1.695.264.53.423 1.218.423 1.955a3.6 3.6 0 01-.159 1.065c.106 0 .159.042.212.116.053.074.106.233.159.482l.053.392a.623.623 0 00.265.323c.106.096.212.175.37.239.106.053.265.127.371.222a.471.471 0 01.16.334c0 .18-.054.313-.16.408a.83.83 0 01-.37.228c-.106.053-.318.159-.636.308-.265.157-.53.347-.795.572l-.53.451a2.935 2.935 0 01-.582.445c-.16.095-.371.143-.583.143l-.37-.042c-.425-.112-.69-.324-.848-.647-.848-.102-1.537-.153-1.96-.153" fill="gray"/></svg>