<?xml version="1.0" encoding="UTF-8"?>
<svg height="16px" viewBox="0 0 16 16" width="16px" xmlns="http://www.w3.org/2000/svg">
    <path d="m 7.9181747,0.20061124 a 5.9818256,6.6948911 0 0 0 -5.8996985,6.75601306 5.9818256,6.6948911 0 0 0 0.742525,3.1436777 l 1.3153299,-0.6885237 a 4.5914959,5.1388264 0 0 1 -0.6692368,-2.5901586 4.5914959,5.1388264 0 0 1 4.5303668,-5.1841744 4.5914959,5.1388264 0 0 1 4.6518699,5.0453126 l 0.0019,0.092575 a 4.5914959,5.1388264 0 0 1 -0.646092,2.5978732 l 1.311472,0.6865949 a 5.9818256,6.6948911 0 0 0 0.725167,-3.1648926 l -0.0019,-0.1195755 a 5.9818256,6.6948911 0 0 0 -6.0617033,-6.57472166 z m 0.094503,3.75891216 a 2.6311559,2.9448039 0 0 0 -2.5959446,2.9720285 2.6311559,2.9448039 0 0 0 2.6422318,2.9180269 2.6311559,2.9448039 0 0 0 2.6190881,-2.9450277 v -0.054002 a 2.6311559,2.9448039 0 0 0 -2.6653753,-2.8910257 z m -0.044359,6.9778066 a 5.8162631,4.013755 0 0 0 -5.7376931,4.050136 5.8162631,4.013755 0 0 0 0.2044354,1.012534 h 11.224663 a 5.8162631,4.013755 0 0 0 0.204435,-1.049178 l -0.0019,-0.07136 a 5.8162631,4.013755 0 0 0 -5.8939123,-3.942132 z" fill="#2e3436"/>
</svg>
