<svg height="16" viewBox="0 0 16 16" width="16" xmlns="http://www.w3.org/2000/svg"><path d="m4.0217389 6.8478262c1.6739128.0217351 3.1304338-1.3043484 3.1086952-2.913044-.021735-1.586955-1.4130426-2.8913052-3.1086952-2.8913052-1.5434782 0-2.5000001.9565228-2.9347842 1.630433-.15217212.2391312-.2173902.4782626-.2173902.760872v1.065218c0 .2826092.06522403.5217389.2173902.7608686.4347841.6304356 1.391306 1.5652183 2.9347842 1.5869576zm-1.8478295-1.7826093c-.19565 0-.3478228-.1521724-.3478228-.3478258v-1.5869561c0-.1956533.1521728-.3478255.3478228-.3478255.1956553 0 .3478301.1521722.3478301.3478255v1.5869561c0 .1956534-.1521748.3478258-.3478301.3478258zm2.2173936 7.5652151h2.0217405v-5.891302c-.565218.4347825-1.2608714.7173917-2.0217405.7826091zm.6956531 2.369568h.6086956c.4347815 0 .7173918-.21739.7173918-.630433v-1.02174h-2.0217405v1.02174c0 .413043.28261.630433.6956531.630433zm6.8913049-8.1521738c1.543478-.0217353 2.521742-.956522 2.934784-1.6304346.152172-.2391316.217391-.4782619.217391-.7608685v-1.0652181c0-.2826085-.065224-.521738-.217391-.760872-.434785-.673911-1.391306-1.630433-2.934784-1.630433-1.673915 0-3.0869558 1.3043449-3.1086981 2.8913036-.0217496 1.6521742 1.4347831 2.9565226 3.1086981 2.9565226zm1.847827-1.7826093c-.195655 0-.347825-.1521724-.347825-.3478258v-1.5869561c0-.1956533.15217-.3478255.347825-.3478255.195653 0 .347825.1521722.347825.3478255v1.5869561c0 .1956534-.152172.3478258-.347825.3478258zm-2.217391 7.5652151v-5.1086929c-.76087-.0652134-1.456523-.3478266-2.0217396-.7826091v5.891302zm-.695653 2.369568c.413045 0 .695653-.21739.695653-.630433v-1.02174h-2.0217396v1.02174c0 .413043.2826068.630433.7173886.630433z" fill="#2e3436" stroke-width=".217391"/></svg>