<svg height="16" viewBox="0 0 16 16" width="16" xmlns="http://www.w3.org/2000/svg"><path d="m5.375 1c-1.4389646 0-2.625 1.1860354-2.625 2.625v8.75c0 1.438964 1.1860354 2.625 2.625 2.625h5.25c1.438964 0 2.625-1.186036 2.625-2.625v-8.75c0-1.4389646-1.186036-2.625-2.625-2.625zm0 1.75h5.25c.499023 0 .875.375977.875.875v8.75c0 .499023-.375977.875-.875.875h-5.25c-.499023 0-.875-.375977-.875-.875v-8.75c0-.499023.375977-.875.875-.875zm2.625.875c-.4819334 0-.875.3930666-.875.875s.3930666.875.875.875.875-.3930666.875-.875-.3930666-.875-.875-.875zm0 3.5c-1.445801 0-2.625 1.179199-2.625 2.625s1.179199 2.625 2.625 2.625 2.625-1.179199 2.625-2.625-1.179199-2.625-2.625-2.625zm0 .875c.9707031 0 1.75.7792969 1.75 1.75 0 .970703-.7792969 1.75-1.75 1.75s-1.75-.779297-1.75-1.75c0-.9707031.7792969-1.75 1.75-1.75zm0 .875c-.4819334 0-.875.3930666-.875.875 0 .481933.3930666.875.875.875s.875-.393067.875-.875c0-.4819334-.3930666-.875-.875-.875z" fill="#2e3436" stroke-width=".875"/></svg>
