<svg height="16" viewBox="0 0 16 16" width="16" xmlns="http://www.w3.org/2000/svg"><path d="m3.6403439 2.6723165c-1.6081428 0-2.71303164.9686697-2.90600905 2.9060091 0 0-.48433484 2.906009-.48433484 4.8433484 0 0 0 2.906009 2.93627999 2.906009 2.8757381 0 2.8757381-2.906009 2.8757381-2.906009 0-1.4530045 1.0178597-1.941123 1.9373394-1.9373394.9119115.0037837 1.9373394.4843349 1.9676103 1.9373394 0 0-.0302709 2.906009 2.8757382 2.906009 2.906009 0 2.906009-2.906009 2.906009-2.906009.030271-1.9373394-.484335-4.8433484-.484335-4.8433484-.158922-1.6005756-1.297866-2.9060091-2.906009-2.9060091zm.7265023 1.9373394h.4843348c.1324356 0 .2421674.1097318.2421674.2421674v.7265023h.7265023c.1324356 0 .2421674.1097318.2421674.2421674v.4843348c0 .1324356-.1097318.2421675-.2421674.2421675h-.7265023v.7265022c0 .1324356-.1097318.2421674-.2421674.2421674h-.4843348c-.1324356 0-.2421674-.1097318-.2421674-.2421674v-.7265022h-.7265023c-.1324356 0-.2421674-.1097319-.2421674-.2421675v-.4843348c0-.1324356.1097318-.2421674.2421674-.2421674h.7265023v-.7265023c0-.1324356.1097318-.2421674.2421674-.2421674zm5.5698507 0c.5335251 0 .9686701.4351448.9686701.9686697 0 .5335248-.435145.9686697-.9686701.9686697-.5335249 0-.9686697-.4351449-.9686697-.9686697 0-.5335249.4351448-.9686697.9686697-.9686697zm2.9060091 1.9373394c.533525 0 .96867.4351448.96867.9686696 0 .5335249-.435145.9686697-.96867.9686697s-.96867-.4351448-.96867-.9686697c0-.5335248.435145-.9686696.96867-.9686696zm0 0" fill="#2e3436" stroke-width=".96867"/></svg>