<svg height="16" viewBox="0 0 16 16" width="16" xmlns="http://www.w3.org/2000/svg"><path d="m8.9753901 1.0001798c-2.4633427-.0243827-5.3899671 2.4382505-5.3899671 4.8039897 0 1.9754797 1.9754292 3.5129771 3.560724 3.5129771 2.2194122 0 5.26843-2.5600435 5.26843-4.7062235 0-2.0731164-1.58562-3.58635-3.4391869-3.6107433zm1.3765839 1.6384664c.247743-.0059483.49549.1097075.647988.338358.268272.3414412.194288.803438-.171556 1.0717108l-1.12173.781303c-.3658463.2682737-.8541337.1698434-1.0979598-.1715553-.2439333-.3658658-.1707268-.8522127.1951177-1.0717108l1.1217305-.8050745c.1280516-.0914552.2778296-.1394542.4264096-.1430312zm-5.4993078 3.0677575c.4389713 0 1.1477705.562271 1.5624014 1.269516.4389721.6829037.4152023 1.2432661-.0237689 1.2432661-.4634181 0-1.1474064-.5603624-1.5863785-1.2432661-.4146326-.707245-.3913316-1.269516.047746-1.269516zm6.3186458 2.5865734c-.780478.7072432-1.707482 1.2675144-2.6343207 1.5601271v4.4156118c0 .487759.3167454.731284.8288461.731284h.9741486c.512206 0 .831326-.243525.831326-.731284z" fill="#2e3436" stroke-width=".886105"/></svg>