<svg height="16" viewBox="0 0 16 16" width="16" xmlns="http://www.w3.org/2000/svg"><path d="m11.022396 1-.329947.3354167-6.5041676 6.6226562-.0273437.0419271c-.0569333.0924-.2529188.4198979-.5450521 1.0153646-.2930667.5954666-.6530709 1.4095084-.9442709 2.3260414l-.2716145.858594.8585937-.271615a16.952133 16.952133 0 0 0 2.3260417-.94427c.5954667-.292133.9210979-.485319 1.0153646-.545053l.0419271-.027344 6.9580737-6.8341138zm-6.7611979.9333333c-1.1741334.014-2.0343313-.0282187-2.7361979.3591146a1.7546667 1.7546667 0 0 0 -.78203128.9315104c-.154.4097334-.20963542.896175-.20963542 1.509375v7.4666667c0 .614133.05563542 1.100575.20963542 1.509375.15306667.409734.43016458.737377.78203128.93151.7018666.388267 1.5620645.345115 2.7361979.359115h7.4776039c1.174134-.013067 2.033399.028218 2.736199-.359115a1.7546667 1.7546667 0 0 0 .782031-.93151c.153067-.4088.209634-.896175.209634-1.509375v-7.4666667c0-.6141333-.055634-1.0996416-.209634-1.509375-.004666-.0121333-.011739-.0216125-.016408-.0328125l-.765623.7528646c.034533.2146667.058333.4654563.058333.7893229v7.4666667c0 .552533-.058947.938583-.149479 1.18125-.091467.242667-.189204.346879-.360938.441146-.3416.188533-1.114517.230271-2.289583.244271h-7.4666672c-1.1750666-.014-1.9507395-.055738-2.2914062-.244271-.1708-.093334-.2676479-.198479-.3591146-.441146-.0905333-.242667-.1494792-.628717-.1494792-1.18125v-7.4666667c0-.5525333.0589459-.9385833.1494792-1.18125.0914667-.2426666.1883146-.3468791.3591146-.4411458.3406667-.1885333 1.1154062-.2302708 2.2914062-.2442708h3.5947917l.9169271-.9333334h-4.5135417zm8.4054689 5.6v4.6666667h-8.4000002v.933333h9.3333342v-5.5999997zm-7.5687502.83125 1.1375 1.1375-.1658854.1640625c-.0021348.0005611-.3601316.2147444-.896875.4794272-.1997333.098-.500252.207098-.7783854.315365l-.2552084-.255209c.1082668-.2781332.2173647-.5786519.3153647-.7783852.2644386-.5362484.4775976-.8932349.4794271-.896875z" fill="#2e3436" stroke-width=".933333"/></svg>
