<svg height="16" viewBox="0 0 16 16" width="16" xmlns="http://www.w3.org/2000/svg"><path d="m5.375 1c-1.4389646 0-2.625 1.1860354-2.625 2.625v8.75c0 1.438965 1.1860354 2.625 2.625 2.625h5.25c1.438965 0 2.625-1.186035 2.625-2.625v-8.75c0-1.4389646-1.186035-2.625-2.625-2.625zm0 1.75h.875c0 .485352.389648.875.875.875h1.75c.485352 0 .875-.389648.875-.875h.875c.499023 0 .875.375977.875.875v7.875c0 .485352-.389648.875-.875.875h-5.25c-.485352 0-.875-.389648-.875-.875v-7.875c0-.499023.375977-.875.875-.875zm2.6848141 2.5463867c-.656922 0-1.2861424.2520094-1.7465813.7109373-.4543892.451899-.688721 1.1043769-.6887211 1.7106932 0 .6063173.2210469 1.2278858.6613773 1.6833504.4705015.4857467 1.1373661.7399904 1.823486.7399904.6242705 0 1.2154747-.244932 1.6372073-.6887215.4145917-.4368709.6289057-1.041131.6289057-1.6748042 0-.2667718-.026153-.4254504-.027343-.4323734l-.023923-.1042475h-2.2541503v.9553215h1.3466802c-.1398224.6639517-.7893638 1.0134285-1.3193364 1.0134285-.385616 0-.7922355-.1631123-1.0612788-.4238281a1.5147677 1.5147677 0 0 1 -.4511718-1.0698249c0-.401835.1798571-.8037225.4426266-1.0681152.2627695-.2643926.659855-.4118651 1.0544432-.4118651.4519034 0 .7761049.240905.8972172.3503421l.6784662-.6750493c-.1988647-.1747454-.7464415-.6152342-1.597904-.6152342z" fill="#2e3436" stroke-width=".875"/></svg>