<svg height="16" viewBox="0 0 16 16" width="16" xmlns="http://www.w3.org/2000/svg"><path d="m4.9057906 7.4241425c.606029 0 1.1209293.51537 1.1209293 1.1517028 0 .636345-.4845956 1.1209416-1.1209293 1.1209416-.6363441 0-1.1215247-.4845966-1.1215247-1.1209416 0-.6363328.4851806-1.1517028 1.1215247-1.1517028zm0 .4847119c-.3636216 0-.6362297.3033815-.6362297.6669909 0 .3636225.2726081.6362306.6362297.6362306.3636103 0 .6665231-.2726081.6362184-.6362306 0-.3636094-.2726081-.6669909-.6362184-.6669909zm6.1509164.4545328c1.242373.1212037 2.515291 1.1519428 2.515291 2.7579388 0 1.727201-1.151473 2.878674-2.878684 2.878674-.666636 0-1.3029791-.242888-1.6665912-.485306.9393478-1.605997 1.6057552-3.302904 2.0299842-5.1513068zm-.606039-6.3633872c.454521 0 .57585.1515075.57585.4545225 0 .6969394-.363622 1.2121959-1.0605627 1.3333988-1.1514732.1818112-1.99968.3941662-2.9390391.8486887-.3636225.1818103-.5152556.4241147-.4243434.7877259l.4545206 2.636025c.2424187 1.5150966-.787726 2.6667981-2.1513028 2.6667981-.8787628 0-1.8486553-.545431-2.0607694-1.6666018l-.3633816-1.9394288c-.3636225-2.0302246 1.1514741-3.5453221 3.6362203-4.393769 1.4544891-.51513 2.8783191-.7273594 4.3328081-.7273594zm-3.0301818 4.3333903c1.4544891.3636234 2.4851034 1.0000819 2.9396348 1.93944-.3939248 1.7272007-1.0003204 3.3029037-1.879072 4.8482927-.4242291.212114-.8782809.303024-1.4843222.303024-2.3029359 0-4.363694-1.121055-4.484909-3.363382.4545328.818143 1.3637025 1.332802 2.3939728 1.332802 1.8180984 0 3.0905475-1.5752211 2.7875325-3.4539392zm-2.5146956 1.0907522c-.6363441 0-1.1215247.51537-1.1215247 1.1517028 0 .636345.4851806 1.1209416 1.1215247 1.1209416.6363337 0 1.1209293-.4845966 1.1209293-1.1209416 0-.6363328-.5149003-1.1517028-1.1209293-1.1517028zm0 .4847119c.3636103 0 .6362184.3033815.6362184.6669909.0303047.3636225-.2726081.6362306-.6362184.6362306-.3636216 0-.6362297-.2726081-.6362297-.6362306 0-.3636094.2726081-.6669909.6362297-.6669909z" fill="#2e3436" stroke-width=".9375"/></svg>