<svg height="16" viewBox="0 0 16 16" width="16" xmlns="http://www.w3.org/2000/svg"><path d="m9.141683 1.6c-2.717334 0-4.961922 3.131598-4.961922 6.971329 0 1.562882.351769 3.254297.827657 3.690122v2.138549h.571314v-2.146381c.289663-.205848.501256-.65416.530224-1.103502-.905758-.255979-1.555475-1.101294-1.555475-2.066163 0-.590725.236205-1.122399.630033-1.535911.196898-2.638595 1.930372-4.983447 3.899479-4.983447 1.181446 0 1.733526.887707 1.733526 2.522036l-4.707563 2.480974c-.689176.354429-1.003724.925623-1.003724 1.516348 0 .886103.728088 1.614193 1.614193 1.614193.433194 0 .729842-.119313 1.340251-.434375l2.361603-1.29916c1.02395-.571043 1.39896-1.26058 1.39896-2.717724v-1.299162c0-2.067553-.90639-3.347726-2.678556-3.347726zm-2.461384 6.458703c.551328 0 1.003722.45421 1.003722 1.025251 0 .571042-.452394 1.023286-1.003722 1.023286-.571043 0-1.023317-.452244-1.023317-1.023286 0-.551358.452274-1.025251 1.023317-1.025251zm0 .393283c-.35443 0-.630033.277538-.630033.631968 0 .354429.275603.630033.630033.630033.334745 0 .61044-.275604.61044-.630033 0-.334746-.275695-.631968-.61044-.631968z" fill="#2e3436"/></svg>