<?xml version="1.0" encoding="UTF-8"?>
<svg height="16px" viewBox="0 0 16 16" width="16px" xmlns="http://www.w3.org/2000/svg">
    <path d="M 7.9023438 0.20117188 A 1.1118644 1.1118644 0 0 0 6.8066406 1.3222656 A 1.1118644 1.1118644 0 0 0 7.9238281 2.4238281 A 1.1118644 1.1118644 0 0 0 9.0292969 1.3125 L 9.0292969 1.2929688 A 1.1118644 1.1118644 0 0 0 7.9023438 0.20117188 z M 4.2636719 1.875 A 1.1118644 1.1118644 0 0 0 3.1679688 2.9980469 A 1.1118644 1.1118644 0 0 0 4.2851562 4.0996094 A 1.1118644 1.1118644 0 0 0 5.390625 2.9882812 L 5.390625 2.9667969 A 1.1118644 1.1118644 0 0 0 4.2636719 1.875 z M 11.707031 1.875 A 1.1118644 1.1118644 0 0 0 10.609375 2.9980469 A 1.1118644 1.1118644 0 0 0 11.726562 4.0996094 A 1.1118644 1.1118644 0 0 0 12.833984 2.9882812 L 12.833984 2.9667969 A 1.1118644 1.1118644 0 0 0 11.707031 1.875 z M 8.0117188 3.9589844 A 2.6311559 2.9448039 0 0 0 5.4160156 6.9316406 A 2.6311559 2.9448039 0 0 0 8.0585938 9.8496094 A 2.6311559 2.9448039 0 0 0 10.677734 6.9042969 L 10.677734 6.8496094 A 2.6311559 2.9448039 0 0 0 8.0117188 3.9589844 z M 3.125 5.2558594 A 1.1118644 1.1118644 0 0 0 2.0273438 6.3769531 A 1.1118644 1.1118644 0 0 0 3.1445312 7.4785156 A 1.1118644 1.1118644 0 0 0 4.2519531 6.3671875 L 4.2519531 6.3476562 A 1.1118644 1.1118644 0 0 0 3.125 5.2558594 z M 12.845703 5.2558594 A 1.1118644 1.1118644 0 0 0 11.748047 6.3769531 A 1.1118644 1.1118644 0 0 0 12.865234 7.4785156 A 1.1118644 1.1118644 0 0 0 13.972656 6.3671875 L 13.972656 6.3476562 A 1.1118644 1.1118644 0 0 0 12.845703 5.2558594 z M 12.128906 8.9472656 A 1.1118644 1.1118644 0 0 0 11.033203 10.070312 A 1.1118644 1.1118644 0 0 0 12.150391 11.171875 A 1.1118644 1.1118644 0 0 0 13.255859 10.060547 L 13.255859 10.039062 A 1.1118644 1.1118644 0 0 0 12.128906 8.9472656 z M 3.8574219 8.9882812 A 1.1118644 1.1118644 0 0 0 2.7617188 10.109375 A 1.1118644 1.1118644 0 0 0 3.8769531 11.212891 A 1.1118644 1.1118644 0 0 0 4.984375 10.099609 L 4.984375 10.080078 A 1.1118644 1.1118644 0 0 0 3.8574219 8.9882812 z M 7.96875 10.9375 A 5.8162631 4.013755 0 0 0 2.2304688 14.988281 A 5.8162631 4.013755 0 0 0 2.4355469 16 L 13.660156 16 A 5.8162631 4.013755 0 0 0 13.863281 14.951172 L 13.861328 14.878906 A 5.8162631 4.013755 0 0 0 7.96875 10.9375 z" fill="#2e3436"/>
</svg>
