<?xml version="1.0" encoding="UTF-8"?>
<svg height="16px" viewBox="0 0 16 16" width="16px" xmlns="http://www.w3.org/2000/svg">
    <path d="M 13.833984 1.2753906 L 13.068359 2.8203125 A 3.327898 4.6105545 0 0 1 14.552734 6.5546875 L 14.552734 6.6386719 A 3.327898 4.6105545 0 0 1 13.068359 10.457031 L 13.835938 12.003906 A 4.677046 6.4796983 0 0 0 15.900391 6.6386719 L 15.900391 6.5234375 A 4.677046 6.4796983 0 0 0 13.833984 1.2753906 z M 11.005859 2.5253906 L 10.240234 3.7089844 A 3.327898 3.5374824 0 0 1 11.722656 6.5742188 L 11.722656 6.6386719 A 3.327898 3.5374824 0 0 1 10.240234 9.5683594 L 11.007812 10.755859 A 4.677046 4.971597 0 0 0 13.072266 6.6386719 L 13.072266 6.5507812 A 4.677046 4.971597 0 0 0 11.005859 2.5253906 z M 8.0117188 3.9589844 A 2.6311559 2.9448039 0 0 0 5.4160156 6.9316406 A 2.6311559 2.9448039 0 0 0 8.0585938 9.8496094 A 2.6311559 2.9448039 0 0 0 10.677734 6.9042969 L 10.677734 6.8496094 A 2.6311559 2.9448039 0 0 0 8.0117188 3.9589844 z M 7.96875 10.9375 A 5.8162631 4.013755 0 0 0 2.2304688 14.988281 A 5.8162631 4.013755 0 0 0 2.4355469 16 L 13.660156 16 A 5.8162631 4.013755 0 0 0 13.863281 14.951172 L 13.861328 14.878906 A 5.8162631 4.013755 0 0 0 7.96875 10.9375 z" fill="#2e3436"/>
</svg>
