<?xml version="1.0" encoding="UTF-8"?>
<svg height="16px" viewBox="0 0 16 16" width="16px" xmlns="http://www.w3.org/2000/svg">
    <path d="M 9.8222656 0 L 9.8183594 0.00390625 A 1.6892501 1.6892501 0 0 1 8.2363281 1.5859375 L 8.2226562 1.5996094 A 1.6892501 1.6892501 0 0 1 9.8222656 3.2480469 A 1.6892501 1.6892501 0 0 1 11.302734 1.5742188 A 1.6892501 1.6892501 0 0 1 9.8339844 0.01171875 L 9.8222656 0 z M 13.441406 0.7578125 L 13.435547 0.765625 A 2.919819 2.919819 0 0 1 10.701172 3.4980469 L 10.677734 3.5214844 A 2.919819 2.919819 0 0 1 13.441406 6.3730469 L 13.441406 6.3964844 A 2.919819 2.919819 0 0 1 16 3.4804688 A 2.919819 2.919819 0 0 1 13.460938 0.77734375 L 13.441406 0.7578125 z M 8.0117188 3.9589844 A 2.6311559 2.9448039 0 0 0 5.4160156 6.9316406 A 2.6311559 2.9448039 0 0 0 8.0585938 9.8496094 A 2.6311559 2.9448039 0 0 0 10.677734 6.9042969 L 10.677734 6.8496094 A 2.6311559 2.9448039 0 0 0 8.0117188 3.9589844 z M 7.96875 10.9375 A 5.8162631 4.013755 0 0 0 2.2304688 14.988281 A 5.8162631 4.013755 0 0 0 2.4355469 16 L 13.660156 16 A 5.8162631 4.013755 0 0 0 13.863281 14.951172 L 13.861328 14.878906 A 5.8162631 4.013755 0 0 0 7.96875 10.9375 z " fill="#2e3436"/>
</svg>
