<svg height="16" viewBox="0 0 16 16" width="16" xmlns="http://www.w3.org/2000/svg"><path d="m6.7440528 2.4178229c-.2468662.0010126-.4976464.0516001-.7404674.1568157-.9712519.4208784-1.4572734 1.5866381-1.0364006 2.5255077l1.4246362 3.2052826c.3885.9712566 1.4890257 1.4566236 2.4926522 1.0357481.9712481-.4208784 1.4572548-1.5542569 1.0363771-2.5255097l-1.3923778-3.2046422c-.3399393-.7527206-1.04385-1.1962377-1.7844197-1.1932022zm-2.5539834 2.4881906c-.8093775.6151266-1.6831302 1.197406-2.0392564 2.3952798-.5180006 1.7806255.3236296 3.4642697 2.1366336 4.1765187l1.3272385.51787c2.2015274.841754 4.4032929.388874 5.2774249-2.0392505.485627-1.3273767.323629-2.4927632-.291499-3.2697735.485629 1.2950175-.12963 2.7192693-1.4246306 3.3020205-1.295011.5503775-2.8166615-.064494-3.3994191-1.3594953l-1.4246156-3.2052797c-.0647513-.161878-.1295015-.3236381-.1618763-.51789zm7.5436746 2.5900313c.161874.90651.09737 1.7803837-.226383 2.6545092-.485628 1.359753-1.424516 2.29889-2.59002 2.687391.5503762.485626 1.230018.744248 2.007022.744248 1.683506 0 3.075637-1.392008 3.075637-3.107887 0-1.424505-.971257-2.6221312-2.266256-2.9782612z" fill="#2e3436" stroke-width=".9375"/></svg>