<svg height="16" viewBox="0 0 16 16" width="16" xmlns="http://www.w3.org/2000/svg"><path d="m7.18826 2.676783c-1.623225 0-2.792903.191061-3.7.644609-.97871.429678-1.670798 1.097956-2.124347 1.861825h13.296087c-.47742-.763869-1.169686-1.432147-2.076783-1.861825-.907096-.453548-2.076774-.644609-3.7-.644609zm-6.134695 3.103217c-.310322.668387-.453565 1.43226-.453565 2.22 0 1.957421.931019 3.747639 2.840696 4.678609.907097.453547 2.100689.644608 3.723914.644608h1.694694c1.623225 0 2.792903-.191061 3.7-.644608 1.909678-.93097 2.840696-2.745059 2.840696-4.678609 0-.78774-.143241-1.527742-.453565-2.22zm6.931456 1.350185c.606533-.008185 1.105616.475392 1.11657 1.081882l.000262.019972c-.000009.606586-.490281 1.099089-1.09686 1.101853-.606597.002758-1.101339-.485289-1.106846-1.091867-.005539-.606614.480291-1.103603 1.086874-1.11184z" fill="#2e3436"/></svg>
