<svg height="16" viewBox="0 0 16 16" width="16" xmlns="http://www.w3.org/2000/svg"><path d="m4 1c-.4155 0-.75.3348505-.75.7519531v6.2402344h-.8496094c-.6112655-.0000001-1.1035156.49225-1.1035156 1.1035156v4.2070309c0 .611265.4922501 1.103516 1.1035156 1.103516h11.1992184c.611266 0 1.103516-.492251 1.103516-1.103516v-4.2070309c0-.6112656-.49225-1.1035156-1.103516-1.1035156h-.849609v-6.2402344c0-.4171026-.3345-.7519531-.75-.7519531s-.75.3348505-.75.7519531v6.2402344h-6.5v-6.2402344c0-.4171026-.3345-.7519531-.75-.7519531zm-1.1582031 9.449219h2.5v1.5h-2.5zm4 0h2.5v1.5h-2.5zm4.0000001 0h2.5v1.5h-2.5z" fill="#2e3436"/></svg>