<svg height="16" viewBox="0 0 16 16" width="16" xmlns="http://www.w3.org/2000/svg"><path d="m.2750083 7.5624774h3.700011c.0999932-.1999864.2999795-.3499973.5249741-.3499973h6.9750046c.250001 0 .450026.1250051.550019.3499973h3.699975c-.249966-2.4500003-2.024987-3.7249794-5.224993-3.7249794h-5.0000001c-3.1749994.0250083-4.9749889 1.2999874-5.2249906 3.7249794zm10.2249907 4.6000246c3.375023 0 5.200021-1.425019 5.250001-4.1000164h-3.724983c-.099993.2000226-.300018.3499972-.550019.3499972h-6.9750046c-.2500029 0-.449988-.125005-.5249741-.3499972h-3.7250193c.0250083 2.5749984 1.9750076 4.1000164 5.2499989 4.1000164zm-2.499982-2.125014c-.2750088 0-.5000034-.224992-.5000034-.499996 0-.2750158.2249946-.500008.5000034-.500008.2749736 0 .5000033.2249922.5000033.500008 0 .275004-.2250297.499996-.5000033.499996z" fill="#2e3436" stroke-width="1.21094"/></svg>
