<svg height="16" viewBox="0 0 16 16" width="16" xmlns="http://www.w3.org/2000/svg"><path d="m9.255947 2.4178231c.2468663.0010125.4976466.0516.7404676.1568156.9712514.4208784 1.4572734 1.5866381 1.0364004 2.5255077l-1.4246361 3.2052824c-.3885.9712565-1.4890256 1.4566228-2.4926521 1.0357481-.9712481-.4208784-1.4572546-1.5542568-1.0363772-2.5255096l1.3923778-3.2046421c.3399394-.7527206 1.04385-1.1962378 1.7844196-1.1932021zm2.553983 2.4881905c.809378.6151266 1.683131 1.1974059 2.039257 2.3952796.518 1.7806256-.32363 3.4642688-2.136634 4.1765178l-1.327238.51787c-2.2015276.841754-4.4032932.388874-5.2774247-2.0392499-.4856269-1.3273764-.3236297-2.4927629.2914987-3.2697732-.4856287 1.2950175.12963 2.7192693 1.4246306 3.3020204 1.2950109.5503767 2.8166615-.0644934 3.3994194-1.3594951l1.424615-3.2052796c.064751-.1618781.129502-.3236381.161876-.51789zm-7.5436747 2.5900312c-.1618734.9065099-.0973687 1.7803837.2263838 2.6545092.4856278 1.359752 1.4245162 2.29889 2.5900199 2.68739-.5503762.485626-1.2300178.744248-2.0070224.744248-1.6835053 0-3.0756366-1.392008-3.0756366-3.107887 0-1.424504.9712566-2.6221302 2.2662553-2.9782602z" fill="#2e3436" stroke-width=".9375"/></svg>