<svg height="16" viewBox="0 0 16 16" width="16" xmlns="http://www.w3.org/2000/svg"><path d="m6.595442.9999998v3.1820066h-.2195916c-.8221236 0-1.4853507.6611556-1.4853507 1.4832791v4.6694285c0 .822124.6632271 1.483279 1.4853507 1.483279h.2195916v3.182007h2.8070436v-3.182007h.2216632c.8221232 0 1.4853512-.661155 1.4853512-1.483279v-4.6694285c0-.8221235-.663228-1.4832791-1.4853512-1.4832791h-.2216632v-3.1820066zm.1118674 4.3794024h2.5853804c.3706912 0 .6712045.2984415.6712045.6691328v3.9029302c0 .3706908-.3005133.6691328-.6712045.6691328h-2.5853804c-.3706912 0-.6712045-.298442-.6712045-.6691328v-3.9029302c0-.3706913.3005133-.6691328.6712045-.6691328z" fill="#2e3436" stroke-width="1.06067"/></svg>