<svg height="16" viewBox="0 0 16 16" width="16" xmlns="http://www.w3.org/2000/svg"><path d="m8.0058594 0c-.1415634-.0007553-.2851567.02832028-.4199219.08984375-.355469.1640622-.5859375.51953125-.5859375.91015625v5.296875l-2.34375-2.046875c-.414062-.363281-1.042969-.3242193-1.40625.0898438-.363281.417968-.324219 1.0468752.09375 1.4101562l2.5664062 2.25-2.5664062 2.25c-.417969.363281-.457031.992188-.09375 1.40625.363281.417969.992188.457031 1.40625.09375l2.34375-2.046875v5.296875c0 .390625.2304685.746094.5859375.910156.359374.160156.7773435.101563 1.0703125-.160156l4-3.5c.21875-.1875.34375-.460938.34375-.75s-.125-.5625-.34375-.75l-3.140625-2.75 3.140625-2.75c.21875-.1875.34375-.460938.34375-.75s-.125-.5625-.34375-.75l-4-3.5c-.1831056-.16357425-.4144517-.24874117-.6503906-.25zm.9941406 3.203125 1.484375 1.296875-1.484375 1.296875zm-7.8496094 2.7519531v4.1445309c.083952-.0051.1680035-.039435.2324219-.1054684l1.6660156-1.7089844c.139659-.143157.139659-.372468 0-.515625l-1.6660156-1.7089843c-.0644185-.066032-.1484702-.1003521-.2324219-.1054688zm13.7695314 0c-.08395.0051-.168004.0394348-.232422.1054688l-1.666016 1.7070312c-.139659.1431571-.139659.3744211 0 .5175781l1.666016 1.7089844c.06442.0660304.148471.1003514.232422.1054684zm-5.919922 4.2480469 1.484375 1.296875-1.484375 1.296875z" fill="#2e3436"/></svg>
