<svg height="16" viewBox="0 0 16 16" width="16" xmlns="http://www.w3.org/2000/svg"><path d="m1.9604492 2.5715942c-.947531 0-1.7104492.7629181-1.7104492 1.7104492v7.4359136c0 .947531.7629182 1.710449 1.7104492 1.710449h12.0791018c.947531 0 1.710449-.762918 1.710449-1.710449v-7.4359136c0-.9475311-.762918-1.7104492-1.710449-1.7104492zm0 1.0141602a1.1290949 1.1645637 0 0 1 1.1295776 1.1636351 1.1290949 1.1645637 0 0 1 -1.1295776 1.1655274 1.1290949 1.1645637 0 0 1 -1.12957761-1.1655274 1.1290949 1.1645637 0 0 1 1.12957761-1.1636351zm3.3679199 0a1.1290949 1.1645637 0 0 1 1.1276856 1.1636351 1.1290949 1.1645637 0 0 1 -1.1276856 1.1655274 1.1290949 1.1645637 0 0 1 -1.1295776-1.1655274 1.1290949 1.1645637 0 0 1 1.1295776-1.1636351zm5.3432609 0a1.1290949 1.1645637 0 0 1 1.129578 1.1636351 1.1290949 1.1645637 0 0 1 -1.129578 1.1655274 1.1290949 1.1645637 0 0 1 -1.1276847-1.1655274 1.1290949 1.1645637 0 0 1 1.1276847-1.1636351zm3.367921 0a1.1290949 1.1645637 0 0 1 1.129578 1.1636351 1.1290949 1.1645637 0 0 1 -1.129578 1.1655274 1.1290949 1.1645637 0 0 1 -1.129578-1.1655274 1.1290949 1.1645637 0 0 1 1.129578-1.1636351zm-11.5947268 3.2487182a1.1290949 1.1645637 0 0 1 1.1295776 1.1636353 1.1290949 1.1645637 0 0 1 -1.1295776 1.1655273 1.1290949 1.1645637 0 0 1 -1.1295776-1.1655273 1.1290949 1.1645637 0 0 1 1.1295776-1.1636353zm3.3679199 0a1.1290949 1.1645637 0 0 1 1.1276856 1.1636353 1.1290949 1.1645637 0 0 1 -1.1276856 1.1655273 1.1290949 1.1645637 0 0 1 -1.1295776-1.1655273 1.1290949 1.1645637 0 0 1 1.1295776-1.1636353zm4.3745109 0a1.1290949 1.1645637 0 0 1 1.129578 1.1636353 1.1290949 1.1645637 0 0 1 -1.129578 1.1655273 1.1290949 1.1645637 0 0 1 -1.1276847-1.1655273 1.1290949 1.1645637 0 0 1 1.1276847-1.1636353zm3.367921 0a1.1290949 1.1645637 0 0 1 1.129578 1.1636353 1.1290949 1.1645637 0 0 1 -1.129578 1.1655273 1.1290949 1.1645637 0 0 1 -1.129578-1.1655273 1.1290949 1.1645637 0 0 1 1.129578-1.1636353zm-10.5805666 3.2449334h3.2770996c.6470474 0 1.1674194.520374 1.1674194 1.16742 0 .647049-.5203722 1.16742-1.1674194 1.16742h-3.2770996c-.6470473 0-1.1674194-.520372-1.1674194-1.16742 0-.647046.5203721-1.16742 1.1674194-1.16742zm6.7736816 0h3.2771c.647047 0 1.167419.520374 1.167419 1.16742 0 .647049-.520372 1.16742-1.167419 1.16742h-3.2771c-.647047 0-1.1674194-.520372-1.1674194-1.16742 0-.647046.5203722-1.16742 1.1674194-1.16742z" fill="#2e3436" stroke-width=".96875"/></svg>