<svg height="16" viewBox="0 0 16 16" width="16" xmlns="http://www.w3.org/2000/svg"><path d="m8.0000002 9.0406786c-.3505685 0-.6572848-.2848214-.6572848-.6353568 0-.3505373.2848215-.6572849.6572848-.6572849.3724322 0 .6572527.2848215.6572527.6572849 0 .3286424-.3067154.6353568-.6572527.6353568zm-2.1909271 5.9593214h4.3599289c2.388107 0 3.571213-1.161181 3.571213-3.571215v-5.7402134h-2.979677c-.13143.2629276-.438178.4820002-.7887144.4820002h-3.9436789c-.3505354 0-.6572518-.1971787-.7887137-.4820002h-2.9796455v5.7621414c0 2.388106 1.1611789 3.549287 3.5492876 3.549287zm-3.5492876-10.0344291h2.9796455c.1314619-.2848205.4381783-.5039262.7887137-.5039262h3.899857c.3943583 0 .6791793.1972108.7887173.5039262h2.979676v-.4381782c.04382-2.3662138-1.117392-3.5273927-3.505499-3.5273927h-4.3818229c-2.3881087 0-3.5492876 1.1611789-3.5492876 3.5492857z" fill="#2e3436" stroke-width=".945946"/></svg>
