<svg height="16" viewBox="0 0 16 16" width="16" xmlns="http://www.w3.org/2000/svg"><path d="m7.03125 2.671875c-1.5931394 0-2.90625 1.3131106-2.90625 2.90625v1.3812253l-3.21655225-3.3262932h-.65844775v8.7187499h.62438941l3.25061059-3.383057v1.453125c0 1.593139 1.3131106 2.90625 2.90625 2.90625h5.8125c1.593139 0 2.90625-1.313111 2.90625-2.90625v-4.84375c0-1.5931394-1.313111-2.90625-2.90625-2.90625zm0 1.9375h5.8125c.55249 0 .96875.4162602.96875.96875v4.84375c0 .55249-.41626.96875-.96875.96875h-5.8125c-.5524898 0-.96875-.41626-.96875-.96875v-4.84375c0-.5524898.4162602-.96875.96875-.96875zm0 0" fill="#2e3436" stroke-width=".96875"/></svg>
