<?xml version="1.0" encoding="UTF-8"?>
<svg height="16px" viewBox="0 0 16 16" width="16px" xmlns="http://www.w3.org/2000/svg">
    <g fill="#2e3436">
        <path d="m 8.0117188,3.9589844 a 2.6311559,2.9448039 0 0 0 -2.5957032,2.9726562 2.6311559,2.9448039 0 0 0 2.6425782,2.9179688 2.6311559,2.9448039 0 0 0 2.6191402,-2.9453125 v -0.054687 a 2.6311559,2.9448039 0 0 0 -2.6660152,-2.8906255 z m -0.042969,6.9785156 a 5.8162631,4.013755 0 0 0 -5.7382812,4.050781 5.8162631,4.013755 0 0 0 0.2050781,1.011719 h 11.2246093 a 5.8162631,4.013755 0 0 0 0.203125,-1.048828 l -0.002,-0.07227 a 5.8162631,4.013755 0 0 0 -5.8925782,-3.941406 z"/>
        <path d="m 7.9181747,0.2006112 a 5.9818256,6.6948911 0 0 0 -5.8996985,6.7560131 5.9818256,6.6948911 0 0 0 0.742525,3.1436777 l 1.3153299,-0.688524 a 4.5914959,5.1388264 0 0 1 -0.6692368,-2.5901583 4.5914959,5.1388264 0 0 1 4.5303668,-5.1841744 4.5914959,5.1388264 0 0 1 4.6518699,5.0453126 l 0.0019,0.092575 a 4.5914959,5.1388264 0 0 1 -0.646092,2.5978731 l 1.311472,0.686595 a 5.9818256,6.6948911 0 0 0 0.725167,-3.1648926 l -0.0019,-0.1195755 a 5.9818256,6.6948911 0 0 0 -6.0617033,-6.5747217 z" fill-opacity="0.34902"/>
    </g>
</svg>
