<svg height="16" viewBox="0 0 16 16" width="16" xmlns="http://www.w3.org/2000/svg"><path d="m7.0246094 1.0001796c2.4633428-.02438277 5.3899676 2.4382504 5.3899676 4.8039896 0 1.9754796-1.975428 3.5129771-3.5607241 3.5129771-2.2194121 0-5.2684301-2.5600435-5.2684301-4.7062233 0-2.0731165 1.5856199-3.5863502 3.4391866-3.6107434zm-1.3765842 1.6384663c-.2477423-.0059483-.4954897.1097075-.6479874.3383581-.2682722.3414415-.1942883.8034381.171556 1.0717104l1.1217299.7813041c.3658462.2682733.8541339.1698428 1.0979604-.171556.2439326-.3658663.1707266-.8522132-.1951188-1.0717104l-1.1217307-.8050744c-.128051-.0914558-.2778291-.1394548-.4264094-.1430318zm5.4993088 3.0677569c-.438972 0-1.1477719.5622724-1.562402 1.2695165-.4389726.6829042-.4152023 1.2432665.0237694 1.2432665.4634166 0 1.1474076-.5603623 1.5863786-1.2432665.414632-.7072441.391331-1.2695165-.047746-1.2695165zm-6.3186456 2.5865735c.7804773.7072441 1.7074819 1.2675153 2.6343195 1.5601275v4.4156112c0 .487759-.3167456.731285-.8288454.731285h-.9741489c-.5122057 0-.8313252-.243526-.8313252-.731285z" fill="#2e3436" stroke-width=".886076"/></svg>