<svg height="16" viewBox="0 0 16 16" width="16" xmlns="http://www.w3.org/2000/svg"><path d="m7.0130494 1.0791421c-.3110454.1435591-.5127123.4546045-.5127123.7964125v4.6349155l-2.0508476-1.7910736c-.362316-.3178811-.9126274-.2837008-1.2305086.0786161-.3178811.3657338-.2837008.9160452.0820339 1.2339264l2.2456779 1.9688137-2.2456779 1.9688136c-.3657347.3178817-.399915.8681927-.0820339 1.2305077.3178812.365735.8681926.399916 1.2305086.082034l2.0508476-1.7910728v4.6349148c0 .341808.2016669.652854.5127123.796413.3144624.140141.6801971.08887.9365533-.140141l3.5001133-3.062599c.191412-.164068.300791-.403334.300791-.656272 0-.252937-.109379-.492203-.300791-.65627l-2.7481358-2.4063283 2.7481358-2.4063279c.191412-.1640678.300791-.4033338.300791-.6562712s-.109379-.4922034-.300791-.6562712l-3.5001133-3.0625991c-.2563562-.22901132-.6220909-.28370059-.9365533-.1401412zm1.2373443 2.7242092 1.2988701 1.1348023-1.2988701 1.1348023zm0 6.1251981 1.2988701 1.1348016-1.2988701 1.134803zm0 0" fill="#2e3436" stroke-width=".875028"/></svg>