<svg height="16" viewBox="0 0 16 16" width="16" xmlns="http://www.w3.org/2000/svg"><path d="m7.9999998 1c-1.1484377 0-2.275.3026044-3.2666666.875-2.0197912 1.1666667-3.2666667 3.325-3.2666667 5.6583333v5.5999997s0 1.866667 1.8666667 1.866667h.9333333c.5177088 0 .9333333-.415625.9333333-.933333v-3.733334c0-.5177085-.4666666-.933333-.9333333-.933333 0 0-.9333333 0-.9333333-.9333333v-.9333334c0-1.6661456.8895833-3.2083333 2.3333333-4.0432289 1.44375-.83125 3.2229167-.83125 4.6666665 0 1.443751.8348956 2.333333 2.3770833 2.333333 4.0432289v.9333334c0 .9333333-.933332.9333333-.933332.9333333-.466668 0-.933335.4156245-.933335.933333v3.733334c0 .517708.415626.933333.933335.933333h.933332c1.866668 0 1.866668-1.866667 1.866668-1.866667v-5.5999997c0-2.3333333-1.246876-4.4916666-3.266668-5.6583333-.991666-.5723956-2.1182284-.875-3.2666662-.875zm0 0" fill="#2e3436" stroke-width=".933333"/></svg>