<svg height="16" viewBox="0 0 16 16" width="16" xmlns="http://www.w3.org/2000/svg"><path d="m7.3998384 1.416312-3.6499192 3.7627156h-2.7411638s-.9087554.8395136-.9087554 2.8220365.9087554 2.8199079.9087554 2.8199079h2.7411638l3.6499192 3.762716zm4.6182646.2936961c-.109966-.0005972-.220933.0215887-.325619.0702316-.276132.1297146-.453314.4104984-.453314.7193427v4.1883621l-1.821767-1.6174568c-.3216458-.2872248-.809584-.2571437-1.0917834.0702317-.2821988.3304628-.2523213.8279688.07236 1.1151938l1.9941544 1.7792026-1.9941544 1.7792026c-.3246815.2872256-.354559.7835626-.07236 1.1109376.2821995.330463.7701373.361718 1.0917834.07449l1.821767-1.6174592v4.1862342c0 .308845.177182.589628.453314.719343.279163.126625.604558.08135.832139-.125566l3.107219-2.766703c.169927-.148244.268158-.365233.268158-.593777 0-.228545-.09823-.445531-.268158-.593777l-2.438954-2.1729252 2.438954-2.1750538c.169927-.1482453.268158-.3631043.268158-.5916487 0-.2285443-.098232-.4455315-.268158-.5937769l-3.107219-2.7667027c-.142238-.1293286-.323241-.1969303-.50652-.1979256zm.774677 2.5325971 1.151374 1.0258081-1.151374 1.0236799zm0 5.5334051 1.151374 1.0258077-1.151374 1.025809z" fill="#2e3436"/></svg>