<svg height="16" viewBox="0 0 16 16" width="16" xmlns="http://www.w3.org/2000/svg"><path d="m8.0225895 1c-1.5483125 0-2.5080964.9584969-2.9442566 1.6345219-.1526419.2398603-.218276.4813776-.218276.7648648v1.0669723c0 .2835209.0656341.5250036.218276.7648967.4361602.6323999 1.3959441 1.5690664 2.9442566 1.5908658 1.6791651.0217939 3.1389085-1.3078124 3.1171125-2.9215548-.021796-1.5919085-1.4161527-2.9005667-3.1171125-2.9005667zm-1.8545717 1.7445176c.1962644 0 .3492435.1530138.3492435.3492808v1.5908612c0 .1962689-.1529791.3492481-.3492435.3492481-.1962734 0-.3492526-.1529792-.3492526-.3492481v-1.5908612c0-.196267.1529792-.3492808.3492526-.3492808zm4.2522052 3.969329c-.5669757.4361319-1.2641895.718674-2.0274265.7840939v5.1253445h2.0274265zm-2.0274265 6.6289214v1.025069c0 .414333.2841562.632163.6985234.632163h.6094548c.4361303 0 .7194483-.21783.7194483-.632163v-1.025069z" fill="#2e3436" stroke-width=".911458"/></svg>