<svg viewBox="0 0 16 16" xmlns="http://www.w3.org/2000/svg"><path d="M10.449 2.56a3.44 3.44 0 00.88-2.56 3.8 3.8 0 00-2.44 1.2 3.28 3.28 0 00-.92 2.48 3.16 3.16 0 002.48-1.12m2.12 5.92c0 2.44 2.2 3.24 2.24 3.24 0 .08-.36 1.2-1.16 2.28-.68.999-1.4 1.959-2.56 1.999-1.12 0-1.48-.64-2.76-.64-1.28 0-1.68.6-2.72.64-1.12.04-1.96-1.04-2.64-2-1.44-2-2.56-5.68-1.08-8.12.76-1.2 2.04-2 3.48-2 1.08 0 2.08.68 2.76.68.64 0 1.88-.84 3.2-.72.52 0 2.08.2 3.04 1.6-.08 0-1.84 1-1.8 3" fill="gray" fill-rule="evenodd"/></svg>