<svg viewBox="0 0 16 16" xmlns="http://www.w3.org/2000/svg"><g transform="matrix(.0385 0 0 .0385 -9.406 -3.384)" fill="gray"><path d="M340.702 142.334H527.16l-47.201 81.755h-101.12l-42.133 72.978 42.72 73.993h197.246l-48.401 83.834H336.699l-92.426-160.086 88.485-153.26z"/><path d="M332.758 141.548l147.2 82.541 47.202-81.755zM379.426 371.06L336.7 454.894h191.572l48.401-83.834z"/><path d="M332.758 141.548l147.2 82.541H378.84l-42.134 72.978 42.72 73.993-42.727 83.834-92.426-160.086 88.485-153.26"/><path d="M479.959 224.09l-147.201-82.542-11.195 20.19 111.59 61.882z"/><path d="M375.855 218.12l148.32-81.755-47.2 81.756z"/><path d="M378.84 224.09l148.32-81.756-47.201 81.755zM244.273 294.808l134.567-70.719-42.134 72.978z"/><path d="M244.273 294.808l134.567-70.719-9.091-14.221-115.971 67.227z"/><path d="M378.84 224.09l-46.082-82.542 3.948 155.519zM379.426 371.06l148.845 83.834 48.401-83.834z"/><path d="M332.758 141.548l-11.195 20.19 1.074 134.667 14.07.662zM336.706 297.067l-70.568 35.388 70.561 122.44zM336.706 297.067v157.827l17.29-33.744 1.336-92.52zM266.138 332.455l70.568-35.388-14.069-.662-61.227 29.254z"/><path d="M266.138 332.455l113.288 38.605-42.72-73.993zM379.426 371.06l-113.288-38.605 12.301 21.241 93.102 33.817zM379.426 371.06l148.845 83.834 17.84-31.752-95.797-52.9z"/><circle cx="627.528" cy="339.702" r="31.819"/><circle cx="627.964" cy="339.375" r="31.819"/><circle cx="546.042" cy="272.724" r="24.156"/><circle cx="546.373" cy="272.476" r="24.156"/><circle cx="578.632" cy="179.5" r="12.439"/><circle cx="578.802" cy="179.372" r="12.439"/></g></svg>