<svg viewBox="0 0 16 16" fill="gray" xmlns="http://www.w3.org/2000/svg"><path d="M9.255 8.452c-.265.004.05.137.395.19.096-.074.182-.15.26-.223a1.978 1.978 0 01-.655.033m1.422-.354c.158-.217.273-.456.313-.703-.035.176-.13.328-.22.488-.496.311-.047-.185 0-.374-.534.67-.074.402-.093.59m.525-1.367c.032-.478-.094-.327-.136-.144.05.025.088.336.136.144M8.25.206c.14.026.305.045.282.079.155-.034.19-.065-.282-.079m.282.079l-.1.02.093-.008.007-.012"/><path d="M12.943 6.913c.016.429-.125.637-.253 1.005l-.229.113c-.187.364.018.232-.116.521-.293.26-.888.815-1.079.865-.139-.003.095-.164.125-.227-.392.27-.314.404-.914.567l-.017-.039c-1.477.696-3.53-.682-3.503-2.562-.016.12-.045.09-.078.138-.076-.967.447-1.94 1.329-2.336.863-.427 1.873-.251 2.491.325-.34-.445-1.015-.916-1.815-.872-.784.012-1.518.51-1.763 1.052-.402.253-.448.975-.624 1.107-.235 1.731.444 2.48 1.592 3.36.18.121.05.14.075.232a3.116 3.116 0 01-1.018-.778c.153.223.317.44.53.61-.36-.122-.84-.872-.98-.902.62 1.11 2.515 1.947 3.507 1.532-.46.017-1.042.01-1.56-.182-.215-.11-.51-.342-.457-.385 1.354.506 2.753.383 3.925-.557.298-.232.624-.627.718-.633-.142.214.024.103-.085.291.298-.479-.129-.195.308-.827l.16.222c-.06-.398.495-.88.438-1.51.127-.192.142.208.007.65.187-.491.05-.57.098-.975.052.136.12.28.155.425-.122-.475.125-.8.186-1.075-.06-.027-.188.21-.217-.35.004-.244.067-.128.092-.188-.048-.028-.173-.214-.25-.572.056-.084.148.218.223.23-.048-.284-.13-.501-.135-.72-.22-.46-.077.062-.256-.197-.234-.73.194-.17.223-.5.355.513.557 1.31.65 1.64a6.72 6.72 0 00-.325-1.17c.108.046-.174-.827.14-.25-.335-1.231-1.433-2.383-2.444-2.923.124.113.28.255.224.278-.503-.3-.414-.323-.486-.45-.41-.166-.437.014-.708 0-.77-.409-.92-.365-1.63-.621l.033.15C8.72.256 8.635.49 8.082.427c-.034-.026.177-.095.35-.12-.494.065-.47-.097-.954.018.119-.084.245-.139.372-.21-.403.025-.962.235-.79.044-.657.293-1.824.705-2.48 1.319l-.02-.138c-.3.36-1.31 1.077-1.39 1.544l-.08.018c-.156.265-.257.565-.381.837-.205.348-.3.134-.27.188-.403.815-.602 1.5-.775 2.06.123.185.003 1.107.05 1.845-.202 3.644 2.558 7.183 5.574 7.999.442.159 1.1.153 1.66.169-.66-.189-.746-.1-1.39-.324-.462-.218-.564-.468-.893-.753l.13.23c-.644-.228-.374-.282-.898-.448l.139-.182c-.21-.015-.553-.35-.647-.537l-.23.01c-.273-.34-.42-.584-.41-.773l-.073.131c-.083-.143-1.01-1.27-.53-1.007-.088-.082-.207-.133-.335-.367l.097-.112c-.23-.297-.425-.678-.41-.805.123.166.209.197.293.226-.583-1.449-.616-.08-1.058-1.475l.093-.007c-.072-.108-.115-.225-.173-.34l.04-.406c-.419-.486-.117-2.066-.056-2.932.042-.353.35-.728.586-1.316l-.143-.025c.273-.477 1.56-1.916 2.158-1.842.29-.363-.057-.001-.114-.093.635-.657.835-.464 1.263-.582.462-.274-.396.107-.177-.105.798-.204.566-.464 1.608-.567.11.062-.255.096-.347.178.666-.326 2.105-.252 3.041.18 1.085.508 2.305 2.008 2.353 3.419l.055.014c-.028.56.086 1.21-.11 1.806l.133-.282"/><path d="M6.36 8.816l-.036.186c.174.237.312.493.535.678-.16-.312-.28-.44-.498-.864m.412-.016c-.092-.102-.147-.225-.208-.347.059.215.178.4.29.588L6.773 8.8m7.288-1.582l-.04.097a4.715 4.715 0 01-.46 1.474c.26-.49.43-1.027.5-1.571M8.3.08c.18-.066.44-.037.63-.08-.246.02-.493.033-.736.065l.107.014M2.009 3.426c.041.382-.288.53.073.278.193-.435-.076-.12-.073-.278m-.424 1.769c.083-.255.098-.408.13-.555-.23.293-.106.356-.13.555"/></svg>