<svg viewBox="0 0 16 16" xmlns="http://www.w3.org/2000/svg"><path d="M2.4 1A1.4 1.4 0 001 2.4a1.4 1.4 0 001.4 1.4 1.4 1.4 0 001.4-1.4A1.4 1.4 0 002.4 1zM8 1a1.4 1.4 0 00-1.4 1.4A1.4 1.4 0 008 3.8a1.4 1.4 0 001.4-1.4A1.4 1.4 0 008 1zm5.6 0a1.4 1.4 0 00-1.4 1.4 1.4 1.4 0 001.4 1.4A1.4 1.4 0 0015 2.4 1.4 1.4 0 0013.6 1zM2.4 6.6A1.4 1.4 0 001 8a1.4 1.4 0 001.4 1.4A1.4 1.4 0 003.8 8a1.4 1.4 0 00-1.4-1.4zm5.6 0A1.4 1.4 0 006.6 8 1.4 1.4 0 008 9.4 1.4 1.4 0 009.4 8 1.4 1.4 0 008 6.6zm5.6 0A1.4 1.4 0 0012.2 8a1.4 1.4 0 001.4 1.4A1.4 1.4 0 0015 8a1.4 1.4 0 00-1.4-1.4zM2.4 12.2A1.4 1.4 0 001 13.6 1.4 1.4 0 002.4 15a1.4 1.4 0 001.4-1.4 1.4 1.4 0 00-1.4-1.4zm5.6 0a1.4 1.4 0 00-1.4 1.4A1.4 1.4 0 008 15a1.4 1.4 0 001.4-1.4A1.4 1.4 0 008 12.2zm5.6 0a1.4 1.4 0 00-1.4 1.4 1.4 1.4 0 001.4 1.4 1.4 1.4 0 001.4-1.4 1.4 1.4 0 00-1.4-1.4z" fill="gray"/></svg>