<svg viewBox="0 0 16 16" xmlns="http://www.w3.org/2000/svg"><path d="M8 0a8 8 0 100 16A8 8 0 008 0zm.037 1.508h.001A6.895 6.895 0 0114.934 8.4a6.895 6.895 0 01-12.058 4.564c.519-.403 1.388-.305 2.458-.183.512.059 1.096.125 1.7.139 1.685.01 3.498-.298 4.617-.787.723-.318 1.187-.526 1.476-.79.105-.085.16-.228.215-.377l.038-.1c.047-.12.115-.378.145-.518.013-.062.02-.129-.023-.163l-.157.03c-.49.294-1.718.855-2.867.878-1.424.03-4.294-1.434-4.594-1.588l-.03-.035c-.071-.172-.5-1.191-.592-1.406 2.067 1.36 3.78 2.113 5.092 2.23 1.46.13 2.598-.667 3.085-1.007.095-.065.168-.116.198-.127l.033-.053c-.082-.513-.848-2.996-1.425-3.592-.16-.164-.287-.322-.545-.474-2.087-1.217-7.043-1.95-7.275-1.983l-.038.012-.015.032-.02 1.143c-.17-.056-.698-.228-1.454-.436.986-1.219 2.496-2.301 5.14-2.301zM9.86 5.155h.107a2.128 2.128 0 012.047 2.196 2.109 2.109 0 01-.672 1.473c-.414.388-.951.59-1.52.572a2.132 2.132 0 01-2.048-2.195c.02-.566.26-1.092.675-1.477.387-.363.884-.56 1.411-.569zm-.056.625a1.46 1.46 0 00-.913.395 1.47 1.47 0 00-.469 1.029 1.485 1.485 0 001.427 1.532 1.473 1.473 0 001.529-1.427A1.481 1.481 0 009.803 5.78zm.39.74c.361 0 .653.197.653.44 0 .24-.292.438-.654.438-.363 0-.657-.198-.657-.439 0-.242.294-.439.657-.439z" fill="gray"/></svg>