<svg viewBox="0 0 16 16" xmlns="http://www.w3.org/2000/svg"><path d="M8 0a8 8 0 00-8 8 8 8 0 008 8 8 8 0 008-8 8 8 0 00-8-8zM6.224 2.001c.715-.016 1.015.142 1.43.396A2.795 2.795 0 018.9 4.127c.166.714.116 1.272-.083 1.668v.03c-.4.81-1.064 1.461-1.995 1.779l.8 1.983c.149.365.282.746.166 1.095-.116.35-.65.462-1.031.081-.732-.746-3.191-5.444-3.374-5.793C3.2 4.62 3 4.334 3 3.985c.016-.524.865-1.064 1.28-1.334.416-.27 1.23-.634 1.945-.65zm-.702 1.452c-.447.078-.181 1.049-.079 1.326.117.318.433.983.782 1.316.083.08.165.144.265.16.1.016.3-.079.383-.206a.57.57 0 00.1-.35 2.127 2.031 0 00-.034-.762 2.603 2.603 0 00-.88-1.285c-.083-.064-.184-.144-.3-.175a.503.503 0 00-.237-.024zM12 4.018a1.5 1.566 0 01.814.418c.2.191.218.4.151.66-.066.262-.3.818-.483 1.218l-.467.922c-.9 1.67-1.083 1.845-1.333 1.74-.3-.121-.2-1.79.083-3.827.083-.556.218-.835.368-.974s.6-.21.867-.157zm-1.57 6.003c.442-.122.641.312.55.637a.465.465 0 01-.23.298c-.122.067-.41.067-.578-.055a.442.442 0 01-.153-.486.593.593 0 01.411-.394zM4.646 12h6.71c.358 0 .644.224.644.501s-.286.5-.644.5h-6.71C4.289 13 4 12.778 4 12.5S4.289 12 4.646 12z" fill="gray"/></svg>