<svg viewBox="0 0 16 16" xmlns="http://www.w3.org/2000/svg"><g transform="matrix(.08642 0 0 .08642 -2.747 -14.557)" fill="gray"><circle class="prefix__cls-3" cx="58.09" cy="255.92" r="26.3"/><circle class="prefix__cls-3" cx="167.63" cy="198.25" r="26.3"/><path class="prefix__cls-3" d="M117.41 323.62c-18.95-4.06-34.78-16.16-43.68-33.32a37.859 37.859 0 01-22.49 2.76c10.77 26.45 33.61 45.66 61.65 51.67a86.423 86.423 0 0018.68 1.92 37.647 37.647 0 01-7.7-21.99 63.26 63.26 0 01-6.45-1.05z"/><circle class="prefix__cls-3" cx="161.71" cy="323.76" r="26.3"/><path class="prefix__cls-3" d="M198.31 314.1a86.185 86.185 0 0016.71-35.45c4.84-22.59.32-46.29-12.4-65.51a37.888 37.888 0 01-14.79 17.32 64.349 64.349 0 016.08 43.67 64.263 64.263 0 01-8.18 20.38 37.756 37.756 0 0112.59 19.6zM56.06 218.2c.67-.04 1.34-.05 2-.05 2.66 0 5.31.28 7.94.85 4.29.92 8.32 2.54 12.01 4.84 11.84-17.03 30.95-27.25 51.65-27.63.11-1.99.38-3.97.79-5.92 1.21-5.63 3.67-10.9 7.19-15.41-33.08-2.62-65.22 14.45-81.59 43.33z"/></g></svg>